<?xml version="1.0" standalone="no"?>
<!DOCTYPE svg PUBLIC "-//W3C//DTD SVG 1.1//EN" "http://www.w3.org/Graphics/SVG/1.1/DTD/svg11.dtd" >
<!--
2013-9-30: Created.
-->
<svg>
<metadata>
Created by iconfont
</metadata>
<defs>

<font id="ct" horiz-adv-x="1024" >
  <font-face
    font-family="ct"
    font-weight="500"
    font-stretch="normal"
    units-per-em="1024"
    ascent="896"
    descent="-128"
  />
    <missing-glyph />
    
    <glyph glyph-name="x" unicode="x" horiz-adv-x="1001"
d="M281 543q-27 -1 -53 -1h-83q-18 0 -36.5 -6t-32.5 -18.5t-23 -32t-9 -45.5v-76h912v41q0 16 -0.5 30t-0.5 18q0 13 -5 29t-17 29.5t-31.5 22.5t-49.5 9h-133v-97h-438v97zM955 310v-52q0 -23 0.5 -52t0.5 -58t-10.5 -47.5t-26 -30t-33 -16t-31.5 -4.5q-14 -1 -29.5 -0.5
t-29.5 0.5h-32l-45 128h-439l-44 -128h-29h-34q-20 0 -45 1q-25 0 -41 9.5t-25.5 23t-13.5 29.5t-4 30v167h911zM163 247q-12 0 -21 -8.5t-9 -21.5t9 -21.5t21 -8.5q13 0 22 8.5t9 21.5t-9 21.5t-22 8.5zM316 123q-8 -26 -14 -48q-5 -19 -10.5 -37t-7.5 -25t-3 -15t1 -14.5
t9.5 -10.5t21.5 -4h37h67h81h80h64h36q23 0 34 12t2 38q-5 13 -9.5 30.5t-9.5 34.5q-5 19 -11 39h-368zM336 498v228q0 11 2.5 23t10 21.5t20.5 15.5t34 6h188q31 0 51.5 -14.5t20.5 -52.5v-227h-327z" />
    

    
    <glyph glyph-name="audible" unicode="&#60612;" d="M1280 496.2v-108l-640-400L0 388v108l640-400 640 400.2z m-389-144l94.2 58.8c-74.4 111.6-201.4 185.2-345.4 185.2-144 0-271-73.4-345.2-184.8h0.6c5 4.6 10.2 9 15.4 13.4 179.4 148.8 438.8 116.2 580.4-72.6z m-440.2-37.6c33.8 23.8 73 37.4 114.8 37.4 68.8 0 130.4-36.8 172.8-95.2l90.8 56.8c-41.8 59.8-111.2 99-189.6 99-77.8 0-146.8-38.8-188.8-98zM207.2 573.8c263.6 208.6 636.4 152.8 835-124.2l1.4-2 97.6 60.8C1034.2 671.8 849.6 779.8 639.8 779.8c-207 0-393.2-107-501-271.2 19.8 21 45.4 47 68.4 65.2z m934-65.4z"  horiz-adv-x="1280" />

    
    <glyph glyph-name="aviato" unicode="&#60613;" d="M214.4 329l-38 83.6H72.2l-38-83.6H0l124.4 262.8 124.4-262.8h-34.4z m-90 196.2l-39.2-85h78.4l-39.2 85z m225.4-204.8l-124.4 262.8h34.2l90.2-192 90.2 192h34l-124.2-262.8z m161.2 8.6V583.2H542v-254.2h-31z m418.2 231.2v-231.2h-34.6V560.2h-82.4v23h199.2v-23h-82.2zM1280 458.4c0-18.4-3.4-35.6-10.2-51.6-6.8-16-16.4-30.2-28.4-42.2-12-12-26.2-21.6-42.2-28.4-16-6.8-33.2-10.2-51.6-10.2s-35.6 3.4-51.6 10.2c-16 6.8-30.2 16.4-42.2 28.4-12 12-21.6 26-28.4 42.2-6.8 16-10.2 33.2-10.2 51.6s3.4 35.6 10.2 51.6c6.8 16 16.4 30.2 28.4 42.2 12 12 26 16.8 42.2 23.8 16 6.8 33.2 10.2 51.6 10.2s35.6-3.4 51.6-10.2c16-6.8 30.2-11.6 42.2-23.8 12-12 21.4-26.2 28.4-42.2 6.8-16 10.2-33.2 10.2-51.6z m-31 0c0 14.6-2.6 28-7.8 40.6-5.2 12.6-12.4 23.4-21.6 32.6-9.2 9.2-20 16.4-32.4 21.8-12.4 5.4-25.6 8-39.6 8s-27.2-2.6-39.6-8c-12.4-5.4-23.2-12.6-32.4-21.8-9.2-9.2-16.4-20-21.6-32.6-5.2-12.6-7.8-26.2-7.8-40.6 0-14.6 2.6-28 7.8-40.6 5.2-12.6 12.4-23.4 21.6-32.6 9.2-9.2 20-16.4 32.4-21.8 12.4-5.4 25.6-8 39.6-8s27.2 2.6 39.6 8c12.4 5.4 23.2 12.6 32.4 21.8 9.2 9.2 16.4 20 21.6 32.6 5.2 12.6 7.8 26.2 7.8 40.6z m-189.6-193.4v12.6l177.8 20-485.8-26.8c1.2 4.4 2.2 9.2 2.8 14.4 0.6 4 1 8.4 1.2 13l129.6 16.2-129.8-3.8c0 0.8-0.2 1.4-0.2 2.2-5.6 34.4-51 47.4-51 47.4l-2.2 52.6h47.6l38-83.6h34.2L697.2 592l-124.4-262.8h34.2l38 83.6h47.2L690 360s-45.4-13-51-47.4c-0.2-0.6-0.2-1.4-0.2-2.2l-129.8 3.8 129.6-16.2c0.2-4.6 0.6-8.8 1.2-13 0.6-5.2 1.6-10 2.8-14.4L156.8 297.6l177.8-20v-12.6c-11.8-1.8-21-12-21-24.4 0-13.6 11.2-24.8 24.8-24.8 13.6 0 24.8 11.2 24.8 24.8 0 12.4-9.2 22.6-21 24.4v11.6l160.6-18v-10.8c-11.4-2.2-19.8-12.4-19.8-24.2 0-13.6 11.2-20.4 24.8-20.4 13.6 0 24.8 6.8 24.8 20.4 0 12-8.6 22-19.8 24.2v9.8l56.8-6.4v-47.4h-11.8V176h11.8v13.2h10v-13.2h11.8v27.6h-11.8V250l76.6-8.6c16.2-22.8 38-27.2 38-27.2l-0.2-13.4-10.2-0.4-0.2-24.2h8.2l0.2 10h10.4l0.2-10h8.2l-0.2 24.2-10.2 0.4-0.2 13.4s21.8 4.2 38 27.2l76.6 8.6v-46.4h-11.8V176h11.8v13.2h10v-13.2h11.8v27.6h-11.8v47.4l56.8 6.4v-9.8c-11.4-2.2-19.8-12.4-19.8-24.2 0-13.6 11.2-20.4 24.8-20.4 13.6 0 24.8 6.8 24.8 20.4 0 12-8.6 22-19.8 24.2v10.8l160.6 18v-11.6c-11.8-1.8-21-12-21-24.4 0-13.6 11.2-24.8 24.8-24.8 13.6 0 24.8 11.2 24.8 24.8-0.4 12.6-9.4 22.8-21.4 24.6z m-401.6 175.2l39.2 85 39.2-85h-35.8l-3.4 80.6-3.4-80.6h-35.8z"  horiz-adv-x="1280" />

    
    <glyph glyph-name="autoprefixer" unicode="&#60614;" d="M509.528747 789.76l-244.718934-729.6h117.80096l38.570667 123.880107h181.63712l38.37952-123.880107h117.804373l-249.473706 729.6z m-61.177174-519.64928l62.508374 198.17472h2.280106l62.32064-198.17472h-127.10912zM998.4 198.478507l-15.199573 47.691093-255.361707 23.749973 29.641387-85.879466 240.919893 14.4384z m-702.429867 71.441066l-255.17056-23.94112L25.6 198.478507l240.919893-14.4384 29.45024 85.879466z"  horiz-adv-x="1024" />

    
    <glyph glyph-name="aws" unicode="&#60615;" d="M522.725 623.8c-28-115-26.2-108.8-51.6-214-3.2-13-8.2-16.8-21.4-17h-28.8c-11.6 0.2-16.4 3.2-19.8 14.6-24.6 78.8-57.6 188.2-79.8 261.4-8.2 27-2.8 26.4 18.6 25.8 7.4-0.2 14.6 0 22 0 10.2-0.2 15.4-4 18.2-14.2 7.2-25.8 12-45.6 53.2-208.2 0.8-3.2 1.8-6.2 2.8-9.2h2.2c1 4 2.2 7.8 3.2 11.8 15.6 65.8 31 131.8 46.6 197.6 4.8 20.4 13.4 22.4 34 22.4h15.2c13.8-0.2 18-3 21.4-16.6 12-46.8 47-203.6 53.4-220.8 10.2 36.6-3.6-15.8 57 218 4.2 16.2 8.2 19.4 24.6 19.4h25.4c10.8-0.2 14-3.6 11.4-14.2-4.8-19-5.8-19.8-82.6-265.8-6.2-19.8-8.4-21.6-29.2-21.6h-21.2c-14.6 0-18.4 2.6-22 16.8-8.6 32.4-46.6 191.4-52.8 213.8z m-271.6-222.4c8.4-11.6 16.2-12.6 28.2-4.8l12.6 8.4c13.6 9 14.6 12.6 7.2 27-8.6 16.8-12.8 34.6-12.6 53.8 0 6.2 1.2 111.4-1.8 133.6-5.4 38.6-25 65.6-63.4 77.4-21.4 6.8-43.4 6.6-65.4 6-30.2-0.8-58.8-9.2-85.6-22.8-3.6-1.8-7.4-6.2-8.2-9.8-1.6-7.8-2.2-16.2-1.4-24.2 1.2-11.8 5.2-14 16.4-10.2 10.2 3.4 20 7.8 30.2 10.8 29 8.8 58.4 12.8 88.2 3.4 14.2-4.4 23.4-13.8 28.6-27.6 6-15.8 4.8-32.2 4.8-48.4 0-11-0.2-11-11-9-27.8 5.2-55.4 10-83.8 6.2-30.4-4.2-57.2-14.6-76.4-40-18.2-24-20-51.2-14.8-79 5.6-30 23.6-51.4 52.8-60.8 41.2-13.4 80.2-6.6 115.4 19 7.6 5.6 14.4 12.4 22.2 19 6.2-10 11.6-19.4 17.8-28z m-30.6 123.2c6-0.8 9-3.8 8.6-10.2-0.4-7.6 0.2-15.2-0.6-22.8-2.4-23.4-15.4-39.4-35.8-49.8-16.4-8.4-33.8-11.6-52.2-10-30.4 2.6-42 26.2-39.2 52.6 2.6 25.2 17 39.2 43 43.6 27.6 4.8 32 2.2 76.2-3.4z m697.6-130.2c42.6 17.2 65.8 52.4 58.4 100-4.4 29.2-23.6 48.4-50.4 59-29.4 11.8-67.6 20.6-96.2 36.4-8.8 4.8-14.8 12.6-15.2 23.8-0.8 22.2 8.4 34.4 30.8 39.6 18.6 4.2 37.6 4.4 56.2 0.8 14.6-2.8 28.6-8.4 42.8-12.6 5.6-1.8 11.8-4.2 15.6 3.2 7.6 14.6 0.8 37.4-14.6 43.6-45 18-91 23.2-136.4 3.2-29.2-12.8-49.2-34.8-52-68.4-3.2-38.6 13.8-66.8 48.2-83.4 15.4-7.4 32.2-11.8 48.4-17.8 16.2-6 32.4-11.6 48.2-18.2 24.6-10.6 23.2-48.4 2.4-60-55.4-30.6-129.8 4.8-138.4 7.6-6.6 2.2-10.6-0.4-12.6-7.4-6-22.6 1.4-37.6 23.2-45.4 43.4-15.8 99.2-21 141.6-4zM592.325 69c101.6 11.6 197.4 41.6 285.4 94 16 9.4 31 20.6 46.2 31.4 14.6 10.4 6.4 36.8-22.6 24.4-108.8-46.4-222.4-72.2-340.4-77.8-61-3-121.6 0.6-182.2 9.4-126.2 18.4-244.8 58.4-355.2 122.4-4.2 2.4-8.4 5-13 6-9.8 2.2-15.4-9.4-4.8-19.4 48-44.2 100.6-81.6 158.2-111.4 107.4-55.4 221-85.4 342.4-84 28.8 1.6 57.6 1.8 86 5z m349.4 184.4c29.6-1.6 38.8-11.8 31.4-40.4-7.6-29.6-18.6-58.4-27.8-87.6-1.8-5.8-8.4-12.6-1.6-17.6 7.4-5.2 13 2 18 6.6 20.4 19 34.8 42 45 67.6 10.8 26.8 18.6 54.4 17.4 83.8-0.4 12.4-3.6 17.6-15.6 21-10.8 3-22 5.6-33 6.4-43.2 3.6-85-1-124-21.2-6.2-3.2-12-7.4-17.4-11.8-2.2-1.8-6.4-10.6 4.8-12.2 3.8-0.6 7.8 0.2 11.8 0.6 33.8 3.2 57.2 6.6 91 4.8z"  horiz-adv-x="1024" />

    
    <glyph glyph-name="audio-description" unicode="&#60616;" d="M368.156444 410.723556l13.63394-47.378101h-39.572687l13.97398 47.371636c1.97301 6.833131 4.096 15.445333 5.983677 23.562343 1.883798-8.115717 4.008081-16.727919 5.98109-23.555878z m257.277415 49.605818h-22.442667v-152.660041h22.442667c46.019232 0 71.360646 27.320889 71.360646 76.926707 0.001293 49.82303-27.028687 75.733333-71.360646 75.733334zM907.636364 606.545455v-445.09091c0-40.970343-33.212768-74.181818-74.181819-74.181818H190.545455C149.576404 87.272727 116.363636 120.484202 116.363636 161.454545v445.09091C116.363636 647.515798 149.576404 680.727273 190.545455 680.727273h642.90909c40.970343 0 74.181818-33.211475 74.181819-74.181818zM495.710384 260.14901l-88.241131 259.63701a18.552242 18.552242 0 0 1-17.559273 12.578909h-55.473132a18.547071 18.547071 0 0 1-17.559272-12.578909L228.636444 260.14901c-4.086949-12.029414 4.854949-24.512646 17.559273-24.512646h45.023677a18.543192 18.543192 0 0 1 17.825616 13.436121l13.251232 46.218343h79.384566l13.58998-46.328242a18.545778 18.545778 0 0 1 17.795879-13.326222h45.084444c12.704323 0 21.646222 12.484525 17.559273 24.512646z m285.445172 124.448323c0 91.145051-58.60202 147.766303-152.938021 147.766303h-88.656161c-10.24 0-18.545778-8.304485-18.545778-18.545777v-259.637011c0-10.242586 8.305778-18.545778 18.545778-18.545777h88.656161c94.337293 0.001293 152.93802 57.078949 152.938021 148.962262z"  horiz-adv-x="1024" />

    
    <glyph glyph-name="avianex" unicode="&#60617;" d="M879.540907 802.133333H297.376427c-72.567467 0-142.332587-58.333867-155.634347-130.2016l-105.465173-575.863466C22.975147 24.200533 71.041707-34.133333 143.844693-34.133333h582.4c72.567467 0 142.10048 58.333867 155.634347 130.205013l105.9328 575.86688c13.062827 71.860907-35.47136 130.194773-108.270933 130.194773z m-108.26752-648.198826l-59.962027-25.204054-215.36768 205.33248c-27.53536-18.66752-54.603093-36.399787-77.933227-50.633386l41.301334-119.934294-33.365334-23.565653-75.83744 113.865387-97.768106 89.6 29.39904 28.934826 108.26752-58.098346c17.268053 19.59936 38.734507 42.233173 61.136213 65.09568l-38.26688 55.299413-128.33792 186.207573 35.00032 53.896534 16.56832 9.099946 192.498347-209.762986 9.099946-8.403627c36.16768 35.003733 63.232 60.433067 63.232 60.433067 14.2336 12.137813 40.133973 5.36576 57.166507-14.701227 16.800427-19.59936 19.83488-46.199467 5.133653-58.565973-3.498667-2.33472-28.934827-21.234347-66.034346-47.834454l8.400213-13.533866 177.332907-222.83264-11.66336-14.6944z"  horiz-adv-x="1024" />

    
    <glyph glyph-name="accessible" unicode="&#60618;" d="M889.964-40.477A25.488 25.488 0 0 0 864.476-66H783.8a25.416 25.416 0 0 0-24.696 19.188l-79.452 286.308-238.32 0.684a25.38 25.38 0 0 0-25.632 22.752l-34.849 288.684a25.488 25.488 0 0 0 26.21 29.052h6.12c62.71 0 70.2-1.44 112.319-38.088l4.572-3.96 0.612-0.54 170.209-157.5h39.814a25.488 25.488 0 1 0 0-51.012h-49.68c-0.647 0-1.08 0-1.655 0.072a25.344 25.344 0 0 0-7.236 1.511h-0.072a25.308 25.308 0 0 0-7.668 4.5l-0.036 0.037-0.072 0.072a24.588 24.588 0 0 0-0.72 0.612L496.376 500.388l-4.32 3.744c-16.74 14.544-23.832 20.556-30.816 22.824-5.508 1.8-13.752 2.412-26.388 2.628l28.8-238.464 235.477-0.684c11.447 0 21.455-7.668 24.48-18.684l79.559-286.74h61.308c14.076 0 25.488-11.412 25.488-25.489zM642.859 108.492a25.488 25.488 0 0 1-34.775-9.504A226.08 226.08 0 0 0 412.1-14.988a225.648 225.648 0 0 0-225.36 225.36 226.872 226.872 0 0 0 144.109 210.312 25.488 25.488 0 0 1-18.396 47.593 275.94 275.94 0 0 1-127.116-99.865 274.752 274.752 0 0 1-49.609-158.04C135.728 58.02 259.712-66 412.1-66a277.2 277.2 0 0 1 240.3 139.716 25.488 25.488 0 0 1-9.54 34.776z m-343.078 619.2A106.452 106.452 0 0 0 406.088 834a106.416 106.416 0 0 0 106.308-106.308 106.416 106.416 0 0 0-106.308-106.308A106.416 106.416 0 0 0 299.78 727.692z m50.977 0c0-30.492 24.84-55.332 55.331-55.332s55.332 24.84 55.332 55.332-24.84 55.332-55.332 55.332-55.332-24.84-55.332-55.332z"  horiz-adv-x="1024" />

    
    <glyph glyph-name="accessible-r" unicode="&#60619;" d="M548.01 128h88.022q-16-73.984-73.984-121.984t-136.021-48q-88.022 0-150.016 61.995t-61.995 150.016q0 77.994 48 136.021T384 380.032v-88.021q-38.016-13.995-61.995-47.019t-24.021-75.008q0-52.01 38.016-89.984t89.984-38.016q41.984 0 75.008 24.021T548.011 128zM425.985 507.99q0 48 41.984 75.989t86.016 2.005h2.005v-2.005q13.995-6.016 25.984-18.006l56.022-61.994q72.021-77.995 171.989-77.995v-84.01q-112 0-212.01 82.005v-146.006h128q34.005 0 59.007-25.984T809.984 192v-233.984h-84.01v212.01H511.956q-34.005 0-59.989 25.985T425.984 256V507.99z m0 218.026q0 36.01 25.003 59.99T512 810.025t61.013-24.02 25.003-59.99-25.003-61.013T512 640t-61.013 25.003-25.003 61.013z"  horiz-adv-x="1024" />

    
    <glyph glyph-name="accessible-icon" unicode="&#60620;" d="M858.026667 384.45056l-24.265387-293.533013c-6.06208-76.066133-119.23456-65.798827-113.165653 8.86784l18.899626 228.666026-77.001386-4.205226c18.899627-38.734507 29.63456-81.89952 29.63456-127.86688 0-77.001387-30.09536-146.991787-79.100587-198.79936l-73.2672 73.274026c108.032 118.992213 24.500907 312.19712-138.134187 312.19712-48.298667 0-92.398933-18.432-125.53216-48.5376l-73.2672 73.270614a289.52576 289.52576 0 0 0 151.90016 75.13088l140.701014 160.068266-79.568214 46.199467-96.365226-85.869227c-55.999147-49.933653-131.833173 34.532693-75.598507 84.698454l126.93504 113.401173c18.199893 16.3328 45.032107 18.899627 66.266453 6.765227 0 0 259.93216-151.200427 260.4032-151.432534 30.334293-18.899627 38.734507-67.201707 11.434667-98.23232l-108.97408-124.12928 197.86752 10.96704c34.52928 2.0992 62.99648-26.835627 60.197547-60.900693zM736.692907 671.914667c52.268373 0 95.20128 42.461867 95.20128 94.96576 0 52.50048-42.932907 94.96576-95.20128 94.96576-52.50048 0-94.96576-42.461867-94.96576-94.962347 0-52.503893 42.46528-94.969173 94.96576-94.969173z m-334.834347-662.196907c-150.500693 0-237.765973 169.168213-154.466987 291.433813l-73.966933 73.966934c-38.966613-48.9984-62.068053-111.066453-62.068053-178.500267 0-243.841707 281.398613-375.90016 469.23776-228.908373l-73.970347 74.19904c-29.863253-20.063573-66.030933-32.191147-104.76544-32.191147z"  horiz-adv-x="1024" />

    
    <glyph glyph-name="accusoft" unicode="&#60621;" d="M729.48736 249.524907c-8.434347 10.082987-340.6336 435.780267-352 449.713493-19.981653 25.299627 0 24.56576 28.23168 24.75008 14.298453 0.18432 155.835733 0.918187 170.868053 0.918187 35.382613 0.187733 42.16832-0.918187 56.282454-18.701654 3.116373-4.037973 300.8512-360.615253 303.783253-364.288 8.065707-9.71776 22.367573-28.050773 10.632533-34.28352-3.300693-1.83296-167.932587-70.034773-172.701013-71.683413-14.66368-6.045013-25.664853-10.07616-45.09696 13.574827m168.297813 8.250026s-168.666453-74.06592-172.332373-75.533653c-23.466667-11.004587-39.601493 4.399787-53.899947 21.261653l-83.78368 108.53376c-7.8848 1.283413-88.548693 14.12096-95.883946 13.571414-4.399787-0.187733-13.933227-1.099093-21.08416-4.215467-7.150933-3.116373-212.84864-77.366613-220.183894-80.11776-7.51616-2.932053-16.86528-5.321387-16.315733-11.3664 0.18432-3.66592 2.932053-3.66592 6.782293-5.133653 3.85024-1.099093 441.101653-99.00032 451.7376-101.198507 22.729387-4.765013 56.466773-15.40096 78.462294-2.566827 3.304107 1.83296 181.500587 112.19968 184.43264 114.21696 8.062293 5.86752 6.6048 9.898667-2.205014 11.915947-3.659093 0.546133-36.29056 6.9632-55.72608 10.632533M419.47136 523.605333s-17.599147-2.205013-36.666027-21.998933C369.60256 487.857493 27.685547 150.705493 25.852587 148.138667c-10.267307-14.667093 2.382507-9.898667 23.10144-2.566827 1.099093 0 167.932587 53.899947 167.932586 53.899947 0.733867 0.733867-0.18432 0 0.733867 0.733866-0.549547 7.70048-1.099093 38.498987-1.467733 40.700587-0.733867 7.70048 3.300693 10.082987 10.267306 13.01504l135.850667 49.68448c0.914773 1.102507 129.798827 119.719253 132.365653 122.10176v1.467733L419.47136 523.605333"  horiz-adv-x="1024" />

    
    <glyph glyph-name="address-book-s" unicode="&#60628;" d="M722.868 188.57c0 101.156-24.575 213.721-126.279 213.721-31.415-18.285-74.276-49.7-121.16-49.7s-89.709 31.415-121.16 49.7c-101.704 0-126.279-112.565-126.279-213.721 0-56.576 37.156-97.132 82.87-97.132h329.139c45.713 0 82.869 40.556 82.869 97.132z m-98.851 339.416c0 82.284-66.851 148.551-148.552 148.551s-148.551-66.304-148.551-148.551c0-81.7 66.852-148.003 148.551-148.003s148.552 66.303 148.552 148.003z m363.406-308.55v-109.714c0-10.275-8.009-18.284-18.285-18.284h-54.856v-127.999c0-50.285-41.143-91.428-91.428-91.428h-694.85a91.684 91.684 0 0 0-91.428 91.428V804.571C36.576 854.857 77.72 896 128.004 896h694.85c50.285 0 91.428-41.143 91.428-91.428v-127.999h54.856c10.276 0 18.286-8.009 18.286-18.284v-109.715c0-10.276-8.01-18.285-18.286-18.285h-54.856v-73.142h54.856c10.276 0 18.286-8.01 18.286-18.286v-109.713c0-10.277-8.01-18.286-18.286-18.286h-54.856v-73.142h54.856c10.276 0 18.286-8.009 18.286-18.285z"  horiz-adv-x="1024" />

    
    <glyph glyph-name="address-card" unicode="&#60629;" d="M585.143 249.714q0-36.571-21.143-60.857t-52-24.286H219.429q-30.858 0-52 24.286t-21.143 60.857 5.143 67.143 16.857 58.857 34.571 44.572 55.429 16.285q3.428-2.285 17.143-10.285T296.857 414t20.286-10 24.571-8.286 24-2.571 24 2.571T414.286 404t20.285 10T456 426.286t17.143 10.285q32.571 0 55.428-16.285t34.572-44.572T580 316.857t5.143-67.143z m-89.714 297.143q0-53.714-38-91.714t-91.715-38-91.714 38-38 91.714 38 91.714 91.714 38 91.715-38 38-91.714zM1024 292.571V256q0-8-5.143-13.143t-13.143-5.143H676.571q-8 0-13.142 5.143T658.286 256v36.571q0 8 5.143 13.143t13.142 5.143h329.143q8 0 13.143-5.143t5.143-13.143z m0 144v-32q0-8.571-6-14.571t-14.571-6H678.857q-8.571 0-14.571 6t-6 14.571v32q0 8.572 6 14.572t14.571 6h324.572q8.571 0 14.571-6t6-14.572z m0 148.572v-36.572q0-8-5.143-13.142t-13.143-5.143H676.571q-8 0-13.142 5.143t-5.143 13.142v36.572q0 8 5.143 13.143t13.142 5.143h329.143q8 0 13.143-5.143t5.143-13.143z m73.143-548.572V731.43q0 7.428-5.429 12.857t-12.857 5.428H91.43q-7.429 0-12.858-5.428t-5.428-12.857v-694.86q0-7.428 5.428-12.857t12.858-5.428h201.14v54.857q0 8 5.143 13.143t13.143 5.143h36.572q8 0 13.142-5.143t5.143-13.143v-54.857H804.57v54.857q0 8 5.143 13.143t13.143 5.143h36.572q8 0 13.142-5.143t5.143-13.143v-54.857h201.143q7.429 0 12.857 5.428t5.429 12.857z m73.143 694.858V36.57q0-37.714-26.857-64.571t-64.572-26.857H91.43q-37.715 0-64.572 26.857T0 36.571V731.43Q0 769.143 26.857 796T91.43 822.857h987.428q37.714 0 64.572-26.857t26.857-64.571z"  horiz-adv-x="1170" />

    
    <glyph glyph-name="address-r" unicode="&#60631;" d="M498.048 864C293.632 864 128 697.92 128 493.12 128 210.24 427.52-96 499.2-96c71.744 0 368.832 306.304 368.832 589.12 0 204.8-165.76 370.88-369.985 370.88z m0-542.784a170.304 170.304 0 0 0-170.176 170.496 170.304 170.304 0 0 0 170.175 170.56 170.304 170.304 0 0 0 170.113-170.56A170.304 170.304 0 0 0 498.048 321.28z"  horiz-adv-x="1024" />

    
    <glyph glyph-name="adjust" unicode="&#60633;" d="M98.405 208.511c22.587-53.401 54.915-101.354 96.087-142.525 41.172-41.172 89.124-73.5 142.525-96.087 55.305-23.392 114.033-35.252 174.555-35.252 60.522 0 119.251 11.86 174.555 35.252 53.401 22.587 101.354 54.916 142.526 96.087 41.171 41.171 73.5 89.124 96.087 142.525 23.392 55.304 35.252 114.033 35.252 174.555 0 60.522-11.86 119.251-35.252 174.555-22.587 53.401-54.916 101.354-96.087 142.526-41.172 41.172-89.125 73.5-142.526 96.087-55.304 23.392-114.033 35.252-174.555 35.252-60.522 0-119.25-11.86-174.555-35.252-53.401-22.587-101.354-54.915-142.525-96.087s-73.5-89.125-96.087-142.526c-23.392-55.304-35.252-114.032-35.252-174.555 0-60.522 11.861-119.251 35.252-174.555z m413.168 558.975c211.97 0 384.42-172.45 384.42-384.42s-172.45-384.42-384.42-384.42c-211.969 0-384.419 172.45-384.419 384.42s172.45 384.42 384.419 384.42zM511.573 62.743V703.389c-176.909 0-320.323-143.413-320.323-320.323s143.414-320.323 320.323-320.323z"  horiz-adv-x="1024" />

    
    <glyph glyph-name="adjust-o" unicode="&#60635;" d="M526.288-67.004c-62.146 0-122.452 12.185-179.244 36.215-54.841 23.207-104.097 56.42-146.397 98.72s-75.515 91.557-98.72 146.398c-24.03 56.79-36.215 117.098-36.215 179.244s12.184 122.453 36.214 179.244c23.206 54.842 56.42 104.097 98.72 146.398s91.556 75.514 146.398 98.72c56.792 24.03 117.097 36.215 179.244 36.215s122.453-12.185 179.245-36.215c54.842-23.205 104.097-56.42 146.397-98.72s75.515-91.556 98.72-146.398c24.03-56.79 36.215-117.097 36.215-179.244 0-62.146-12.184-122.454-36.215-179.244-23.205-54.842-56.42-104.098-98.72-146.398s-91.555-75.513-146.397-98.72c-56.792-24.03-117.098-36.215-179.245-36.215z m0 890.454c-237.034 0-429.876-192.842-429.876-429.877s192.842-429.877 429.876-429.877c237.035 0 429.877 192.842 429.877 429.877S763.322 823.45 526.288 823.45z m15.35-826.933h-15.35c-218.926 0-397.035 178.119-397.035 397.056 0 218.937 178.11 397.056 397.035 397.056h15.35v-794.112z m-30.7 763.096c-194.908-8.073-350.986-169.171-350.986-366.04 0-196.869 156.078-357.967 350.987-366.04v732.08z"  horiz-adv-x="1024" />

    
    <glyph glyph-name="adjust-r" unicode="&#60636;" d="M512.032 694.848V73.12q84.576 0 156 41.728T781.184 228t41.728 156-41.728 156-113.152 113.152-156 41.728zM73.152 384q0 119.424 58.848 220.288T291.712 764 512 822.848 732.288 764 892 604.288 950.848 384 892 163.712 732.288 4 512-54.848 291.712 4 132 163.712 73.152 384z"  horiz-adv-x="1024" />

    
    <glyph glyph-name="adn" unicode="&#60637;" d="M512.073 540.599l114.834-174.885H397.166z m208.604-302.885h53.686L512.073 632.54l-262.29-394.825h53.687l59.465 91.429H661.21zM950.93 384q0-119.442-58.88-220.306T732.306 3.95 512-54.93t-220.306 58.88T131.95 163.694 73.07 384t58.88 220.306T291.694 764.05 512 822.93t220.306-58.88T892.05 604.306 950.93 384z"  horiz-adv-x="1024" />

    
    <glyph glyph-name="affiliatetheme" unicode="&#60638;" d="M332.34944 458.87488c-95.901013-132.304213-217.698987-206.97088-272.06656-166.6048-54.59968 40.605013-20.998827 180.370773 75.134293 312.671573 95.665493 132.3008 217.46688 206.967467 271.834454 166.601387 54.367573-40.36608 20.76672-180.370773-74.902187-312.66816z m655.6672 106.86464c-138.1376-230.301013-358.4-350.22848-493.96736-268.100267-46.667093 28.4672-76.997973 77.001387-91.467093 137.90208-62.767787-121.101653-173.134507-212.565333-306.367147-248.733013 93.098667-110.83776 231.70048-180.834987 386.399573-180.834987 280.00256 0 507.26912 229.833387 507.26912 513.099094 0 15.868587-0.935253 31.501653-1.867093 46.667093z"  horiz-adv-x="1024" />

    
    <glyph glyph-name="adversal" unicode="&#60639;" d="M933.86752 774.826667H87.801173C44.868267 774.826667 34.133333 763.859627 34.133333 720.92672v-728.234667c0-43.871573 10.734933-54.132053 53.66784-54.132053h846.066347c45.73184 0 55.999147 9.79968 55.999147 55.538347V718.363307c0 45.963947-10.267307 56.46336-55.999147 56.46336zM367.100587 423.427413c-51.33312 37.57056-134.63552 16.104107-157.033814-43.86816-8.168107-20.534613-17.50016-17.732267-32.6656-15.40096-18.199893 2.79552-32.201387 6.06208-42.001066 10.267307-53.899947 21.234347 15.865173 103.133867 46.434986 119.934293 76.765867 40.133973 155.634347 41.53344 233.79968 9.099947 76.29824-31.49824 64.39936-110.595413 64.39936-239.86176 5.133653-48.298667-7.932587-108.970667 17.50016-165.901653 3.498667-7.932587 0.699733-14.465707-5.133653-20.066987-15.633067-12.1344-73.2672-3.734187-87.033173 14.004907-3.498667 4.194987-3.26656 6.529707-7.232854 11.666773-6.765227 7.000747-13.533867 4.194987-22.166186-1.870507-107.10016-68.133547-262.034773-40.133973-274.40128 80.73216-5.833387 54.59968 23.10144 106.632533 73.966933 132.532907 71.164587 36.399787 209.298773 21.93408 212.800853 57.634133 1.86368 19.131733-3.734187 37.563733-21.234346 51.0976z m535.033173-414.399146c0-28.4672-20.534613-18.670933-33.133227-18.670934H131.90144c-13.765973 0-33.83296-8.86784-33.133227 20.0704 0.699733 26.129067 19.59936 16.800427 31.965867 16.800427 246.86592 0.928427 493.73184 0.928427 740.601173 0 12.598613 0 30.798507 8.3968 30.798507-18.199893z m7.46496 635.5968v-543.20128c0-10.734933-1.399467-26.129067-15.40096-26.129067-22.86592 0.928427-51.33312-13.06624-67.201707 10.734933-10.738347 15.865173-14.465707 7.468373-23.333546 1.867094-99.631787-55.067307-238.933333-13.06624-269.499734 159.133013-11.43808 62.532267-1.170773 125.300053 29.395627 186.668373 21.937493 44.8 106.16832 142.10048 254.098773 56.9344V623.16544c0 48.994987-0.467627 48.994987 48.534187 48.994987 5.604693 0 12.1344-0.699733 18.199893 0 18.66752 1.399467 25.20064-8.168107 25.20064-26.600107l0.006827-0.935253z m-96.13312-433.7664c-36.399787-88.900267-136.267093-80.73216-168.23296-9.567574-28.23168 62.068053-28.934827 127.17056 0.699733 189.467307 30.5664 63.46752 111.53408 66.495147 152.132267 8.86784 38.734507-53.66784 28.002987-157.965653 15.40096-188.767573zM263.03488 145.05984c-14.001493 2.338133-61.600427 6.065493-62.999893 51.800747-0.699733 25.903787 14.701227 42.932907 37.09952 48.298666 45.499733 10.96704 91.93472 18.432 137.434453 27.29984 16.56832 3.734187 13.765973-8.168107 14.701227-17.732266 2.563413-61.600427-48.769707-110.36672-126.235307-109.666987z"  horiz-adv-x="1024" />

    
    <glyph glyph-name="alarm" unicode="&#60640;" d="M286.986 354.002a45.005 45.005 0 0 1 45-45h179.999a45.005 45.005 0 0 1 45 45v240a45.005 45.005 0 0 1-90 0v-195h-135a45.005 45.005 0 0 1-44.999-45z m666.373 188.82c24.12 30.628 38.626 69.182 38.626 111.181 0 99.405-80.594 179.999-180 179.999a179.057 179.057 0 0 1-111.18-38.625A481.664 481.664 0 0 0 953.36 542.822zM32 657.766c0-41.113 14.203-78.853 37.816-108.856a471.521 471.521 0 0 0 247.26 247.276C287.094 819.794 249.35 834.002 208.22 834.002c-97.336 0-176.235-78.904-176.22-176.236z m44.984-303.764c0-115.558 45.343-220.319 118.876-298.184l-60.84-60.84a44.498 44.498 0 1 1 62.94-62.926L263.3-2.59c70.513-49.29 156.135-78.402 248.684-78.402a432.783 432.783 0 0 1 248.279 78.09l64.906-64.906 0.517-0.517a45.005 45.005 0 0 1 63.114 64.163l-60.344 60.345c73.303 77.865 118.528 182.461 118.528 297.825 0 240.24-194.76 435-435 435s-435-194.77-435-435.005z m90 0c0 190.546 154.47 345 345 345 190.547 0 345.002-154.454 345.002-345S702.53 9 511.985 9s-345.001 154.455-345.001 345z"  horiz-adv-x="1024" />

    
    <glyph glyph-name="align-center" unicode="&#60643;" d="M921.6 65.43H102.4q-18.852 0-32.178 13.325t-13.326 32.178 13.326 32.178 32.178 13.326h819.2q18.852 0 32.178-13.326t13.326-32.178-13.326-32.178T921.6 65.43z m-91.03 546.133H193.409q-18.853 0-32.178 13.326t-13.326 32.178 13.326 32.178 32.178 13.326h637.163q18.852 0 32.178-13.326t13.326-32.178-13.326-32.178-32.178-13.326z m91.03-182.059H102.4q-18.852 0-32.178 13.326t-13.326 32.178 13.326 32.178 32.178 13.326h819.2q18.852 0 32.178-13.326t13.326-32.178-13.326-32.178-32.178-13.326z m-91.03-182.037H193.409q-18.853 0-32.178 13.326t-13.326 32.178 13.326 32.178 32.178 13.326h637.163q18.852 0 32.178-13.326t13.326-32.178-13.326-32.178-32.178-13.326z"  horiz-adv-x="1024" />

    
    <glyph glyph-name="align-center-o" unicode="&#60644;" d="M236.28288 741.9136a26.51136 26.51136 0 1 1 0-53.02272h529.792a26.51648 26.51648 0 1 1 0 53.02272H236.28288zM76.97408 503.30624a26.51136 26.51136 0 0 1 26.51136-26.51136h795.3664a26.51136 26.51136 0 0 1 0 53.02272H103.48544a26.51136 26.51136 0 0 1-26.51136-26.51136z m848.384-424.19712a26.51136 26.51136 0 0 1-26.51136 26.51136H103.48544a26.51136 26.51136 0 1 1 0-53.02272h795.3664a26.51136 26.51136 0 0 1 26.50624 26.51136zM236.28288 317.7216a26.51648 26.51648 0 0 1 0-53.02784h529.792a26.51648 26.51648 0 1 1 0 53.02784H236.28288z"  horiz-adv-x="1024" />

    
    <glyph glyph-name="algolia" unicode="&#60645;" d="M523.199147 523.465387c-105.065813 0-190.132907-85.067093-190.132907-190.132907 0-105.332053 85.067093-190.399147 190.132907-190.399147 105.332053 0 190.399147 85.067093 190.399146 190.399147 0.003413 105.069227-85.32992 190.132907-190.399146 190.132907z m133.86752-120.797867l-125.600427-65.068373a5.533013 5.533013 0 0 0-8.267093 4.799146v141.868374c0 3.201707 2.932053 5.870933 5.86752 5.604693 55.999147-2.133333 104.267093-33.604267 130.399573-79.199573 1.334613-2.67264 0.26624-6.403413-2.399573-8.004267zM864 844.8H159.73376C90.39872 844.8 34.133333 788.534613 34.133333 719.199573v-704.26624C34.133333-54.401707 90.39872-110.933333 159.73376-110.933333h704.26624C933.33504-110.933333 989.866667-54.401707 989.866667 14.933333V719.199573C989.866667 788.534613 933.33504 844.8 864 844.8zM432.001707 663.999147a41.485653 41.485653 0 0 0 41.601706 41.601706h96.53248c23.200427 0 41.601707-18.404693 41.601707-41.601706v-32.79872c0-3.734187-3.47136-6.4-6.93248-5.33504a307.022507 307.022507 0 0 1-81.332907 10.932906c-28.801707 0-56.80128-3.7376-83.99872-11.73504-3.734187-1.068373-7.19872 1.600853-7.19872 5.33504v33.600854h-0.273066zM251.999573 585.065813l19.46624 19.73248c16.267947 16.267947 42.666667 16.267947 58.668374 0l16.534186-16.5376c2.399573-2.133333 2.133333-6.4-0.53248-8.533333-13.33248-9.601707-25.86624-19.995307-37.60128-31.73376a323.16416 323.16416 0 0 1-31.73376-37.061973c-2.133333-2.665813-6.13376-3.201707-8.533333-0.53248l-16.267947 16.267946c-16.267947 15.998293-16.267947 42.400427 0 58.39872z m271.199574-522.134186c-149.333333 0-269.868373 121.06752-269.868374 270.134613s120.80128 270.138027 269.868374 270.138027c149.333333 0 270.400853-120.804693 270.400853-270.138027 0-149.067093-121.06752-270.134613-270.400853-270.134613z"  horiz-adv-x="1024" />

    
    <glyph glyph-name="align-justify-o" unicode="&#60646;" d="M103.48544 711.1936a26.51136 26.51136 0 1 1 0-53.02272h795.3664a26.51136 26.51136 0 0 1 0 53.02272H103.48544zM76.97408 493.06624a26.51136 26.51136 0 0 1 26.51136-26.51136h795.3664a26.51136 26.51136 0 0 1 0 53.02272H103.48544a26.51136 26.51136 0 0 1-26.51136-26.51136zM925.35808 109.82912a26.51136 26.51136 0 0 1-26.51136 26.51136H103.48544a26.51136 26.51136 0 1 1 0-53.02272h795.3664a26.51136 26.51136 0 0 1 26.50624 26.51136zM103.48544 327.9616a26.5216 26.5216 0 0 1 0-53.03296h790.7072a26.5216 26.5216 0 0 1 0 53.03296H103.48544z"  horiz-adv-x="1024" />

    
    <glyph glyph-name="align-left" unicode="&#60647;" d="M921.6 65.42848H102.4c-12.5696 0-23.296 4.43904-32.1792 13.32736-8.8832 8.8832-13.32736 19.6096-13.32736 32.17408 0 12.5696 4.44416 23.30112 13.32736 32.1792 8.8832 8.8832 19.6096 13.33248 32.1792 13.33248h819.2c12.5696 0 23.296-4.44416 32.1792-13.33248 8.87808-8.87808 13.32736-19.6096 13.32736-32.1792 0-12.56448-4.44416-23.29088-13.32736-32.17408-8.8832-8.88832-19.6096-13.32736-32.1792-13.32736zM581.12 611.56352H102.4c-12.5696 0-23.296 4.44416-32.1792 13.32736-8.8832 8.8832-13.32736 19.6096-13.32736 32.1792s4.43904 23.29088 13.32736 32.1792c8.8832 8.8832 19.6096 13.32736 32.1792 13.32736h478.72c12.5696 0 23.296-4.44416 32.1792-13.32736 8.87808-8.8832 13.32736-19.6096 13.32736-32.1792s-4.44416-23.296-13.32736-32.1792c-8.8832-8.88832-19.6096-13.32736-32.1792-13.32736zM921.6 429.50656H102.4c-12.5696 0-23.296 4.43904-32.1792 13.32736-8.8832 8.8832-13.32736 19.6096-13.32736 32.1792s4.44416 23.296 13.32736 32.1792c8.8832 8.8832 19.6096 13.32736 32.1792 13.32736h819.2c12.5696 0 23.296-4.44416 32.1792-13.32736 8.87808-8.8832 13.32736-19.6096 13.32736-32.1792s-4.44416-23.296-13.32736-32.1792c-8.8832-8.88832-19.6096-13.32736-32.1792-13.32736zM581.12 247.47008H102.4c-12.5696 0-23.296 4.43904-32.1792 13.32224-8.8832 8.88832-13.32736 19.6096-13.32736 32.1792s4.43904 23.296 13.32736 32.1792c8.8832 8.87808 19.6096 13.32736 32.1792 13.32736h478.72c12.5696 0 23.296-4.44416 32.1792-13.32736 8.87808-8.8832 13.32736-19.6096 13.32736-32.1792s-4.44416-23.29088-13.32736-32.1792c-8.8832-8.8832-19.6096-13.32224-32.1792-13.32224z"  horiz-adv-x="1024" />

    
    <glyph glyph-name="align-left-o" unicode="&#60648;" d="M122.595 669.834h496.704c13.72 0 24.856 11.11 24.856 24.855s-11.135 24.855-24.856 24.855H122.62c-13.72 0-24.855-11.11-24.855-24.855s11.11-24.855 24.83-24.855zM97.74 495.848c0-13.744 11.135-24.855 24.855-24.855h745.654c13.72 0 24.855 11.11 24.855 24.855s-11.135 24.855-24.855 24.855H122.595c-13.72 0-24.855-11.11-24.855-24.855z m24.855-422.537h745.654c13.72 0 24.855 11.11 24.855 24.855s-11.135 24.855-24.855 24.855H122.595c-13.72 0-24.855-11.11-24.855-24.855s11.135-24.855 24.855-24.855z m0 198.84h496.704c13.72 0 24.856 11.112 24.856 24.856s-11.135 24.855-24.856 24.855H122.62c-13.72 0-24.855-11.11-24.855-24.855s11.11-24.855 24.83-24.855z"  horiz-adv-x="1024" />

    
    <glyph glyph-name="align-right-o" unicode="&#60649;" d="M893.082 694.692a24.847 24.847 0 0 1-24.853 24.852H371.543a24.842 24.842 0 0 1-24.852-24.852 24.842 24.842 0 0 1 24.852-24.853H868.25a24.822 24.822 0 0 1 24.832 24.853zM868.25 520.704H122.593c-13.721 0-24.852-11.11-24.852-24.852s11.136-24.853 24.852-24.853H868.25c13.721 0 24.852 11.11 24.852 24.853s-11.13 24.852-24.852 24.852z m24.857-422.538a24.842 24.842 0 0 1-24.852 24.852H122.593c-13.721 0-24.852-11.11-24.852-24.852s11.136-24.853 24.852-24.853H868.25a24.842 24.842 0 0 1 24.857 24.853z m-0.025 198.845a24.847 24.847 0 0 1-24.853 24.853H371.543a24.842 24.842 0 0 1-24.852-24.853 24.847 24.847 0 0 1 24.852-24.857H868.25a24.822 24.822 0 0 1 24.832 24.857z"  horiz-adv-x="1024" />

    
    <glyph glyph-name="align-right" unicode="&#60650;" d="M70.2208 78.75584c-8.87808 8.8832-13.33248 19.6096-13.33248 32.17408 0 12.5696 4.44928 23.30112 13.33248 32.1792 8.8832 8.88832 19.6096 13.33248 32.1792 13.33248h819.2c12.5696 0 23.296-4.44928 32.1792-13.33248 8.87808-8.87808 13.32736-19.6096 13.32736-32.1792 0-12.56448-4.44416-23.29088-13.32736-32.17408-8.8832-8.8832-19.6096-13.32736-32.1792-13.32736H102.4c-12.5696 0-23.296 4.43904-32.1792 13.32736zM410.7008 624.89088c-8.87808 8.8832-13.33248 19.6096-13.33248 32.1792s4.44928 23.296 13.33248 32.1792c8.8832 8.8832 19.6096 13.32736 32.1792 13.32736H921.6c12.5696 0 23.296-4.44416 32.1792-13.32736 8.8832-8.88832 13.32736-19.6096 13.32736-32.1792s-4.44416-23.296-13.32736-32.1792c-8.8832-8.8832-19.6096-13.32736-32.1792-13.32736H442.88c-12.5696 0-23.296 4.43904-32.1792 13.32736zM70.2208 442.83392c-8.87808 8.8832-13.33248 19.6096-13.33248 32.1792s4.44928 23.296 13.33248 32.1792c8.8832 8.8832 19.6096 13.32736 32.1792 13.32736h819.2c12.5696 0 23.296-4.44416 32.1792-13.32736 8.87808-8.8832 13.32736-19.6096 13.32736-32.1792s-4.44416-23.296-13.32736-32.1792c-8.8832-8.88832-19.6096-13.32736-32.1792-13.32736H102.4c-12.5696 0-23.296 4.43904-32.1792 13.32736zM410.7008 260.79232c-8.87808 8.88832-13.33248 19.6096-13.33248 32.1792s4.44928 23.30112 13.33248 32.1792c8.8832 8.8832 19.6096 13.33248 32.1792 13.33248H921.6c12.5696 0 23.296-4.44928 32.1792-13.33248s13.32736-19.6096 13.32736-32.1792-4.44416-23.29088-13.32736-32.1792c-8.8832-8.87808-19.6096-13.32224-32.1792-13.32224H442.88c-12.5696 0-23.296 4.43904-32.1792 13.32224z"  horiz-adv-x="1024" />

    
    <glyph glyph-name="alipay" unicode="&#60651;" d="M638.890667 234.376533c-85.275307-102.396587-173.499733-165.000533-307.206827-165.000533-133.71392 0-221.893973 82.500267-210.500267 181.99552 5.710507 65.39264 51.21024 173.499733 247.5008 156.388693 102.38976-8.495787 150.787413-28.388693 236.107094-56.890026 22.780587 39.7824 39.775573 85.282133 53.992106 130.781866H283.286187v37.000534h184.89344V584.267093H243.46624V626.981547h224.713387V723.6608s2.78528 14.21312 19.889493 14.21312h93.893973v-110.88896h238.88896V587.195733h-241.78688v-65.426773h196.287147c-17.107627-74.001067-45.499733-142.21312-79.60576-199.109973 48.39424-17.104213 244.606293-76.77952 301.499733-93.89056V726.480213C997.246293 806.089387 931.853653 868.693333 855.033173 868.693333H169.570987C89.856 868.693333 27.286187 803.300693 27.286187 726.480213v-688.39424c0-79.60576 65.396053-142.209707 142.216533-142.209706h688.387413c79.612587 0 142.216533 65.389227 142.216534 142.209706v34.21184c-48.42496 22.6816-264.536747 116.578987-361.216 162.07872z m-477.924694 25.603414c-8.4992-37.000533 14.216533-125.21472 156.388694-125.21472 85.282133 0 170.714453 53.998933 238.88896 142.21312-96.713387 48.397653-176.39424 71.10656-267.393707 71.10656-79.561387-2.819413-119.381333-51.104427-127.883947-88.10496z"  horiz-adv-x="1024" />

    
    <glyph glyph-name="allergies-r" unicode="&#60652;" d="M860.16 652.8c-32.6656 0-59.733333-26.832213-59.733333-59.733333v-134.4a14.885547 14.885547 0 0 0-14.933334-14.933334h-29.866666A14.885547 14.885547 0 0 0 740.693333 458.666667V742.4c0 32.90112-26.832213 59.733333-59.733333 59.733333S621.226667 775.30112 621.226667 742.4v-283.733333c0-8.168107-6.765227-14.933333-14.933334-14.933334h-29.866666c-8.168107 0-14.933333 6.765227-14.933334 14.933334V802.133333c0 32.90112-26.832213 59.733333-59.733333 59.733334s-59.733333-26.832213-59.733333-59.733334v-343.466666c0-8.168107-6.765227-14.933333-14.933334-14.933334h-29.866666C389.05856 443.733333 382.293333 450.49856 382.293333 458.666667V742.4c0 32.90112-26.832213 59.733333-59.733333 59.733333S262.826667 775.30112 262.826667 742.4V292.532907l-44.100267 60.665173C194.461013 386.563413 147.79392 393.79968 114.425173 369.53088s-40.6016-70.93248-16.3328-104.301227l234.267307-322.23232C349.160107-80.3328 376.22784-93.866667 404.927147-93.866667h368.899413c41.53344 0 77.4656 28.4672 87.26528 69.065387l49.466027 210.234027c5.60128 25.432747 8.86784 52.732587 9.332053 78.865066V593.066667c0.003413 32.90112-27.06432 59.733333-59.72992 59.733333zM412.16 85.333333C395.8272 85.333333 382.293333 98.8672 382.293333 115.2S395.8272 145.066667 412.16 145.066667s29.866667-13.533867 29.866667-29.866667-13.533867-29.866667-29.866667-29.866667z m0 179.2C395.8272 264.533333 382.293333 278.0672 382.293333 294.4s13.533867 29.866667 29.866667 29.866667 29.866667-13.533867 29.866667-29.866667S428.4928 264.533333 412.16 264.533333z m119.466667-238.933333c-16.3328 0-29.866667 13.533867-29.866667 29.866667s13.533867 29.866667 29.866667 29.866666 29.866667-13.533867 29.866666-29.866666-13.533867-29.866667-29.866666-29.866667z m0 179.2c-16.3328 0-29.866667 13.533867-29.866667 29.866667S515.293867 264.533333 531.626667 264.533333s29.866667-13.533867 29.866666-29.866666-13.533867-29.866667-29.866666-29.866667z m119.466666-59.733333C634.760533 145.066667 621.226667 158.600533 621.226667 174.933333s13.533867 29.866667 29.866666 29.866667 29.866667-13.533867 29.866667-29.866667S667.426133 145.066667 651.093333 145.066667z m59.733334-119.466667c-16.3328 0-29.866667 13.533867-29.866667 29.866667s13.533867 29.866667 29.866667 29.866666 29.866667-13.533867 29.866666-29.866666-13.533867-29.866667-29.866666-29.866667z m59.733333 238.933333c-16.3328 0-29.866667 13.533867-29.866667 29.866667s13.533867 29.866667 29.866667 29.866667 29.866667-13.533867 29.866667-29.866667-13.533867-29.866667-29.866667-29.866667z"  horiz-adv-x="1024" />

    
    <glyph glyph-name="amazon" unicode="&#60653;" d="M886.143 52.866q8.573 3.423 14.843 1.727t6.27-10.012-8.573-19.13q-7.421-9.149-25.143-24.855t-54.542-38.835-80.548-42.257-107.387-33.14-131.09-14.012q-67.977 0-135.954 17.722T244.636-66.23t-98.526 59.403-75.686 59.98-47.984 49.999q-4.574 5.15-5.726 9.436t0.576 6.846 4.574 3.999 6.558 1.151 6.558-2.559Q144.67 55.2 206.345 27.21q222.196-100.542 456.42-51.407 108.538 22.84 223.346 77.126z m118.264 65.673q6.27-9.149 1.44-39.698t-16.283-58.54q-19.417-47.408-48.56-70.824-9.724-7.997-14.842-5.15t0 13.723q11.996 25.72 25.43 69.417t3.712 56.268q-2.847 3.999-8.861 6.558t-15.419 3.423-16.858 1.44-19.993 0-18.01-1.152-17.722-1.728-12.86-1.151q-3.422-0.576-7.421-0.864t-6.27-0.576-4.862-0.576-3.999-0.288h-5.726l-1.727 0.288-1.152 0.864-0.864 1.727q-3.422 9.15 26.84 22.84t58.827 17.147q26.263 3.998 61.707 0.576t43.409-13.724zM779.332 371.604q0-17.722 7.71-36.563t18.265-33.14 21.433-26.264 18.841-18.265l7.422-6.27-129.684-127.956q-22.84 21.144-45.136 43.12t-33.14 33.43l-10.845 11.42q-6.27 6.27-14.267 18.841-21.72-33.716-55.693-58.54t-72.839-36.275-79.972-13.148-78.533 11.996-67.113 37.427-47.408 64.554-17.722 92.832q0 47.983 15.995 87.97t41.137 66.537 60.843 47.408 69.992 32.564 74.247 19.706 68.264 10.556 56.845 3.71v72.552q0 37.139-11.996 55.405-19.417 30.261-69.128 30.261-3.423 0-9.437-0.575t-23.128-6.846-31.989-16.858-31.989-34.005-27.415-54.829L214.95 657.778q0 34.26 12.572 67.977t38.259 64.553 61.706 54.254 86.53 37.427T522.845 896q57.133 0 103.389-14.267t73.99-35.124 46.256-47.408 25.72-49.135 7.133-42.001v-336.46z m-383.868-11.996q0-49.135 39.986-75.973 37.715-25.144 79.397-12.572 47.984 14.267 65.13 70.248 7.997 25.719 7.997 57.708v92.544q-33.717-1.152-63.402-6.846t-60.843-19.129-49.711-40.562-18.554-65.418z"  horiz-adv-x="1024" />

    
    <glyph glyph-name="amazon-pay" unicode="&#60654;" d="M0 245.6c4.6 8.4 10.4 9.8 19.4 5 20.8-11.2 41.2-22.8 62.4-33.4 81.4-40.8 166.4-71.2 254.8-92.6 41.8-10 83.8-18 126.4-23.6 63-8.4 126.4-12 190-10.4 34.8 0.8 69.6 3.6 104.2 7.6 112.8 13.4 221.8 41.6 326.6 85.6 5.8 2.4 11.8 4 18.2 2.4 13.4-3.6 18-18 8.2-27.8-5.6-5.6-12.6-10.2-19.2-14.8-61.4-42.2-128.4-72.8-199.2-95.8-49.2-15.8-99.2-27.6-150.2-35.2-35.2-5.2-70.8-8.8-106.4-9.6-1.6 0-3.4-0.4-5-0.6H588c-1.6 0.2-3.4 0.6-5 0.6-7.2 0.4-14.4 0.6-21.4 0.8-33.8 1.4-67.4 5.2-100.8 10.6-54.8 9-108.4 22.8-160.8 41.8-108.2 39.2-205.2 97.2-291.2 174-3.6 3.2-6 7.6-8.8 11.4v4zM316 766c-2.8-0.4-5.8-0.8-8.6-1.2-28-3.4-53.2-13.8-76-30.2-4.8-3.4-9.2-7-14.2-10.8-0.4 1-0.8 2-0.8 2.8-0.8 5.4-1.6 11-2.6 16.4-1.4 9.2-6 13.2-15.2 13.2h-23c-13.8 0-16.4-2.6-16.4-16.4v-418.6c0-2 0-4 0.2-6 0.4-6 4-9.8 9.8-10 14-0.2 28.2-0.2 42.2 0 5.8 0 9.4 4 10 10 0.2 2 0.2 4 0.2 6V466c2.2-1.8 3.4-2.8 4.4-3.8 35.8-29.8 77-39.6 122-30.8 40.8 8 69.2 33 87.6 69.8 14 27.8 19.8 57.4 20.6 88.2 1 34.2-2.4 67.8-16.2 99.6-17 39.2-45.2 65-87.8 73.8-6.4 1.4-13 2-19.6 3-5.6 0.2-11 0.2-16.6 0.2z m-94.8-83.8c0 3 0.8 4.8 3.4 6.6 27.4 19 57.6 29 91.2 26.4 29.8-2.2 54.2-16.8 67-51.8 7.8-21.4 9.8-43.6 9.8-66 0-20.8-1.6-41.2-8-61.2-13.6-42.6-44.8-58.8-85.2-57-28 1.2-52.4 12-74.8 27.8-2.4 1.8-3.4 3.4-3.4 6.6 0.2 28.2 0 56.2 0 84.4 0 28 0.2 56 0 84.2zM632.6 766c-2-0.2-4-0.6-5.8-0.8-19.6-1-38.8-3.4-57.8-8.2-12.2-3.2-24-7.6-35.8-11.6-7.2-2.4-10.8-7.6-10.6-15.4 0.2-6.6-0.2-13.2 0-19.8 0.2-9.6 4.2-12.2 13.6-9.8 15.6 4 31.2 8.4 47 11.4 24.6 4.6 49.4 6.6 74.4 2.8 13-2 25.2-5.8 33.6-16.8 7.4-9.6 10.2-21 10.6-32.8 0.6-16.6 0.4-33.2 0.6-49.8 0-0.8-0.2-1.8-0.4-2.8-1 0.2-1.8 0-2.6 0.2-21 5-42.2 8.6-64 9.8-22.6 1.2-45-0.2-66.6-7.8-25.8-9-46.6-24.6-58.8-49.8-9.4-19.6-10.8-40.4-7.8-61.4 4-28 18-49.6 42.8-63.4 23.8-13.2 49.6-14.8 75.8-10.8 30.2 4.6 57 17.4 80.6 36.8 0.8 0.8 1.8 1.4 3.2 2.2 1.2-7.6 2.2-14.8 3.6-22 1.2-6.2 5-10.2 10.8-10.4 10.8-0.2 21.8-0.2 32.6 0 5.4 0.2 9 3.8 9.6 9.4 0.2 1.8 0.2 3.8 0.2 5.6v212c0 8.6-0.4 17.2-1.8 25.8-3.8 25.8-14.8 47-38 60.8-13.4 8-28.2 12-43.6 14.2-7.2 1-14.4 1.6-21.6 2.6-7.8-0.2-15.8-0.2-23.8-0.2z m70-255.4c0-2.6-0.8-4.4-3-6-22.4-16.2-47-27-74.8-29.8-11.4-1.2-22.8-0.8-33.6 3.6-12.6 5-20.8 13.8-24.8 26.6s-4 26-0.2 38.8c5 16.6 16.8 26 32.8 31.2 16.2 5.2 33 6 49.6 4.4 16.8-1.4 33.2-4.6 50-6.8 3.2-0.4 4.2-2 4.2-5.2-0.2-9.6 0-19 0-28.6-0.2-9.4-0.4-18.8-0.2-28.2z m519.8-258.8c-2 10-9.6 13.8-18.2 16.6-13.6 4.6-27.8 6.6-42 7.8-26.2 2.2-52.4 1-78.4-3.8-28.6-5.4-55.8-14.6-80-31.2-2.8-2-5.6-4.2-7.4-7-1.4-2.2-1.8-5.6-1-8 0.8-3 4.2-3.8 7.2-3.6 1.4 0 3 0 4.4 0.2 15.6 1.6 31 3.4 46.6 5 22.8 2.2 45.8 3.6 68.6 1.8 9.6-0.6 19.4-2.8 28.8-5.4 10.2-2.8 14.8-10.4 15.2-20.8 0.8-16-2.8-31.4-7-46.6-8.2-30.8-20-60.6-31.6-90.2-0.8-2-1.6-4-2-6-1-5.8 2.4-9.6 8.2-8.2 3.4 0.8 7.2 2.6 9.6 5 8.8 8.6 17.8 17.2 25.4 26.8 25.6 32.8 40.6 70.6 49.4 111.2 1.6 7.2 2.8 14.6 4.2 21.8v34.6zM958.2 498.2c-25.8 71.4-51.6 143-77.4 214.4-4 11.4-8.4 22.6-12.6 33.8-2.2 5.8-6.4 9.6-12.8 9.6-15.2 0.2-30.4 0.4-45.8 0.2-5 0-7.4-4-6.4-9 1-4.2 2.2-8.2 3.8-12.2 39.2-97 78.6-194.2 118.2-291 3.4-8.2 4.2-15.2 0.4-23.6-6.6-14.6-11.8-30-18.6-44.6-6-13-16-22.8-30.4-26.6-10.2-2.8-20.4-3.2-30.8-2.2-5 0.4-10 1.6-15 2-6.8 0.4-10.2-2.6-10.4-9.6-0.2-6.6-0.2-13.2 0-19.8 0.2-11 4-16 14.8-17.8 11.2-2 22.6-3.8 33.8-4 34.2-0.8 61.4 13 79 42.8 7 11.8 13.4 24.2 18.4 36.8 47.4 119.6 94.2 239.4 141.2 359.2 1.4 3.6 2.6 7.2 3.2 11 0.8 5.6-1.8 8.8-7.4 8.8-13.2 0.2-26.6 0-39.8 0-7.4 0-12.6-3.2-15.4-10.4-1-2.8-2.2-5.4-3.2-8.2-23.2-66.6-46.4-133.2-69.6-200-5-14.4-10.2-29-15.4-44.4-0.8 2.2-1.2 3.4-1.8 4.8z"  horiz-adv-x="1222" />

    
    <glyph glyph-name="align-justify" unicode="&#60655;" d="M128 682.667h768q17.664 0 30.165-12.502T938.667 640t-12.502-30.165T896 597.333H128q-17.664 0-30.165 12.502T85.333 640t12.502 30.165T128 682.667z m0-512h768q17.664 0 30.165-12.502T938.667 128t-12.502-30.165T896 85.333H128q-17.664 0-30.165 12.502T85.333 128t12.502 30.165T128 170.667z m0 170.666h768q17.664 0 30.165-12.501t12.502-30.165-12.502-30.166T896 256H128q-17.664 0-30.165 12.501t-12.502 30.166 12.502 30.165T128 341.333zM128 512h768q17.664 0 30.165-12.501t12.502-30.166-12.502-30.165T896 426.667H128q-17.664 0-30.165 12.501t-12.502 30.165T97.835 499.5 128 512z"  horiz-adv-x="1024" />

    
    <glyph glyph-name="ambulance-s" unicode="&#60657;" d="M768 106.667c35.413 0 64 28.586 64 64 0 35.413-28.587 64-64 64s-64-28.587-64-64c0-35.414 28.587-64 64-64m64 384H725.333V384h190.294L832 490.667m-576-384c35.413 0 64 28.586 64 64 0 35.413-28.587 64-64 64s-64-28.587-64-64c0-35.414 28.587-64 64-64m597.333 448l128-170.667v-213.333H896c0-70.827-57.173-128-128-128s-128 57.173-128 128H384c0-70.827-57.173-128-128-128s-128 57.173-128 128H42.667V640A85.038 85.038 0 0 0 128 725.333h597.333v-170.666h128m-512 85.333v-128h-128v-85.333h128v-128h85.334v128h128V512h-128V640h-85.334z"  horiz-adv-x="1024" />

    
    <glyph glyph-name="amazon-pay-square" unicode="&#60659;" d="M249.4 492.4c0.2 23.6 0 47 0 70.6v70.6c0 2.6 0.8 4 2.8 5.4 23 16 48.2 24.2 76.4 22.2 25-1.8 45.4-14 56.2-43.4 6.6-17.8 8.2-36.4 8.2-55.4 0-17.4-1.4-34.6-6.8-51.2-11.4-35.6-37.4-49.4-71.4-47.8-23.4 1-43.8 10-62.8 23.4-1.8 1.6-2.8 3.2-2.6 5.6z m309.8-29.2c9.2-3.6 18.6-4 28.2-3 23.2 2.4 43.8 11.4 62.6 25 1.8 1.2 2.6 2.6 2.6 5-0.2 7.8 0 15.8 0 23.6 0 8-0.2 16 0 24 0 2.8-0.8 4-3.6 4.4-14 1.8-27.8 4.4-41.8 5.8-14 1.2-28 0.6-41.6-3.8-13.4-4.4-23.4-12.4-27.4-26.2-3.2-10.8-3.2-21.6 0.2-32.4 3.2-11 10.4-18.4 20.8-22.4zM1152 736v-704c0-53-43-96-96-96H96c-53 0-96 43-96 96V736c0 53 43 96 96 96h960c53 0 96-43 96-96z m-415-47.8c0.8-3.4 1.8-6.8 3.2-10.2 33-81.2 65.8-162.6 99-243.8 2.8-7 3.4-12.8 0.4-19.8-5.6-12.4-9.8-25.2-15.6-37.4-5.2-11-13.4-19-25.4-22.4-8.4-2.2-17-2.6-25.8-1.8-4.2 0.4-8.4 1.4-12.6 1.6-5.6 0.4-8.4-2.2-8.6-8-0.2-5.6-0.2-11.2 0-16.6 0.2-9.2 3.2-13.4 12.4-15 9.4-1.6 18.8-3.2 28.4-3.4 28.6-0.6 51.4 10.8 66.2 35.8 5.8 9.8 11.2 20.2 15.4 30.8 39.6 100.2 79 200.6 118.4 301 1.2 3 2.2 6 2.6 9.2 0.8 4.8-1.4 7.2-6.2 7.4-11.2 0.2-22.2 0-33.4 0-6.2 0-10.6-2.8-12.8-8.6-0.8-2.2-1.8-4.6-2.6-6.8l-58.2-167.4c-4.2-12.2-8.4-24.2-13-37.2-0.8 1.8-1.2 2.8-1.6 3.8-21.6 59.8-43.2 119.8-64.8 179.6-3.4 9.4-7 19-10.6 28.4-1.8 5-5.4 8-10.8 8-12.8 0.2-25.6 0.4-38.4 0.2-4.4 0-6.6-3.2-5.6-7.4zM484.8 484c3.4-23.4 15.2-41.6 36-53.2 19.8-11 41.4-12.4 63.4-9.2 25.4 3.8 47.8 14.6 67.6 31 0.8 0.6 1.6 1.2 2.8 2 1-6.4 1.8-12.4 3-18.4 1-5.2 4.2-8.6 9-8.8 9.2-0.2 18.2-0.2 27.4 0 4.6 0.2 7.6 3.2 8 7.8 0.2 1.6 0.2 3.2 0.2 4.6V617.4c0 7.2-0.4 14.4-1.4 21.6-3.2 21.6-12.4 39.4-31.8 50.8-11.2 6.6-23.6 10-36.4 11.8-6 0.8-12 1.4-18.2 2.2h-20c-1.6-0.2-3.2-0.6-5-0.6-16.4-0.8-32.6-2.8-48.4-7-10.2-2.6-20-6.4-30-9.8-6-2-9-6.4-8.8-13 0.2-5.6-0.2-11.2 0-16.6 0.2-8.2 3.6-10.4 11.4-8.2 13 3.4 26.2 7 39.4 9.6 20.6 3.8 41.4 5.4 62.2 2.4 10.8-1.6 21-4.8 28.2-14 6.2-8 8.4-17.6 8.8-27.4 0.6-13.8 0.4-27.8 0.6-41.6 0-0.8-0.2-1.4-0.4-2.4-0.8 0-1.6 0-2.2 0.2-17.6 4.2-35.4 7.2-53.6 8.2-19 1-37.8-0.2-55.8-6.4-21.6-7.6-39-20.6-49.2-41.6-8.2-16.6-9.2-34-6.8-51.6zM197.4 682.2v-350.6c0-1.6 0-3.4 0.2-5 0.4-5 3.4-8.2 8.2-8.4 11.8-0.2 23.6-0.2 35.4 0 5 0 8 3.4 8.2 8.2 0.2 1.6 0.2 3.4 0.2 5V452.8c1.8-1.4 2.8-2.4 3.8-3.2 30-25 64.4-33.2 102.2-25.8 34.2 6.8 57.8 27.8 73.4 58.4 11.6 23.2 16.6 48.2 17.4 74 1 28.6-2 56.8-13.6 83.4-14.2 32.8-37.8 54.6-73.4 61.8-5.4 1.2-11 1.6-16.4 2.4h-14c-2.4-0.4-4.8-0.6-7.2-1-23.4-2.8-44.6-11.6-63.6-25.4-4-2.8-7.8-6-11.8-9-0.2 1-0.6 1.6-0.8 2.4-0.8 4.6-1.4 9.2-2.2 13.8-1.2 7.8-5 11-12.8 11.2h-19.4c-11.8 0.2-13.8-2-13.8-13.6zM987.2 218c-5.4 1.4-10.2 0-15.2-2-87.8-36.8-179-60.4-273.6-71.6-29-3.4-58.2-5.6-87.4-6.4-53.2-1.4-106.4 1.6-159.2 8.6-35.6 4.8-71 11.4-106 19.8-74 17.8-145.4 43.4-213.4 77.6-17.6 8.8-34.8 18.6-52.2 28-7.6 4.2-12.4 3-16.4-4.2v-3.4c2.4-3.2 4.4-6.8 7.4-9.6 72-64.4 153.2-113 244-145.8 43.8-15.8 88.8-27.4 134.6-35 28-4.6 56-7.6 84.4-9 6-0.2 12-0.4 18-0.8 1.4 0 2.8-0.4 4.2-0.6h35.4c1.4 0.2 2.8 0.6 4.2 0.6 29.8 0.8 59.6 3.6 89.2 8 42.8 6.4 84.8 16.2 125.8 29.4 59.2 19.2 115.4 44.8 166.8 80.2 5.6 3.8 11.4 7.6 16 12.4 8.6 8.8 4.6 20.8-6.6 23.8z m100.8 55.4c-1.6 8.4-8 11.6-15.2 14-11.4 3.8-23.2 5.6-35.2 6.6-22 1.8-44 0.8-65.6-3.2-24-4.4-46.8-12.2-67-26.2-2.4-1.6-4.8-3.6-6.2-6-1.2-1.8-1.4-4.6-1-6.8 0.6-2.6 3.4-3.2 6-3 1.2 0 2.4 0 3.6 0.2l39 4.2c19.2 1.8 38.4 3 57.6 1.6 8.2-0.6 16.2-2.4 24-4.4 8.6-2.2 12.4-8.8 12.8-17.4 0.6-13.4-2.4-26.2-5.8-39-7-25.8-16.6-50.8-26.6-75.6-0.6-1.6-1.4-3.4-1.6-5-0.8-5 2-8 6.8-7 2.8 0.6 6 2.2 8 4.2 7.4 7.2 15 14.4 21.2 22.4 21.4 27.6 34 59.2 41.4 93.2 1.4 6 2.4 12.2 3.4 18.2 0.4 9.4 0.4 19.2 0.4 29z"  horiz-adv-x="1152" />

    
    <glyph glyph-name="amex-square" unicode="&#60660;" d="M1152.4 385.2c-75.8 0.4-88.4 1.8-109-10v10c-90.6 0-107 3.4-129.8-10.4v10.4H757.2V375c-22.8 13-42.8 10.2-151.4 10.2V374c-12.6 7.4-29 11.2-48.6 11.2h-116c-7-7.6-25-27.4-31.4-34.4-25.4 28.2-21 23.2-31 34.4H212.6v-184.6h164c6.6 7 25.8 27.8 32.2 34.8 25.4-28.6 20.6-23.4 30.8-34.8h97.8c0 29.4 0.2 16.6 0.2 46 23-0.4 48.6 0.4 68.6 12.4 0-27.8-0.2-34.2-0.2-58.4h79.2c0 37 0.2 14.8 0.2 50.6 12.4 0 15.4 0 18.8-0.2 0.2-2.6 0 0 0-50.4 305.6 0 291.8-2.2 313.4 9v-9c69.6 0 109.6-4.4 135 12.2V32c0-53-43-96-96-96H96.4c-53 0-96 43-96 96V439.4h53.2C62 459.6 58 450 66.4 470h38.4c8.4-20 4.4-10.4 12.8-30.6h105.8v22.8c4.4-10 2.2-5 10.2-22.8h59c4.8 11 5.2 11.6 10.2 22.8v-22.8h271v50.2c12.8 0 16 0.2 19.6-0.4 0 0-0.4-21.8 0.2-49.6h133v17.8c14.8-11.8 34.8-17.8 59.4-17.8h53.6c8.4 20.2 4.4 10.6 12.8 30.6h38c13-30 0.4-1 13.2-30.6h105.6v43.8c23.6-39.4 15.6-25.8 26.4-43.8h83.2v184H1039v-36.8c-24.4 40.4-12.6 20.8-22.4 36.8H930v-41.2c-12.4 29.2-9.2 21.6-17.6 41.2h-64.8c-0.8 0-4.6-0.4-4.6 0.6h-55.2c-25.6 0-46.2-6.4-61.4-18.6v18.6h-79.8v-10.6c-21.6 12.2-41.4 10.2-128.8 10.6-0.2 0-23.2 0.2-23.2 0h-206c-5-12.2-13.6-32.8-25.2-60-5.6 12-22 47.6-27.8 60h-92V582c-14.8 34.8-9.4 22-18 42.2H46.2c-6.8-15.8-27.4-64-46.2-107.8V736c0 53 43 96 96 96h960c53 0 96-43 96-96v-350.8zM779.2 546.4c-0.6-0.4-2.8-4.4-2.8-15.2 0-12 1.8-15.4 2.2-15.8 0.4-0.2 2.2-1 6.8-1l14.6 33.8c-2.2 0-4.2 0.2-6.2 0.2-11.2 0-14-1.4-14.6-2z m-39.8-261.8c18.4-6.6 22-19 22-36.8l-0.2-27.6H728l0.2 23c0 23.6-7.6 27.6-29.6 27.6h-35.2l-0.2-50.6H630l0.2 138.6H709c26 0 54.2-4.6 54.2-37.4-0.2-15.2-8.4-30.6-23.8-36.8z m-12.6 30.8c0 12.8-11.2 14.8-21.4 14.8h-42V299h41.4c11.2 0 22 2.6 22 16.4z m363.4 14.2h60.2v29.2h-65.8c-25.6 0-47.6-13.2-47.6-41.4 0-66 85.4-25.6 85.4-54.8 0-10.2-8.6-12.8-16.8-12.8h-64l-0.2-29.6h64c16.8 0 35.2 3.6 45 17.8v51.6c-21 27.6-78.6 2.6-78.6 27 0 11.6 9.2 13 18.4 13z m-198.4 0.6v28.6H781.4l-0.2-138.6h110.4l0.2 28.6-77.2 0.6V277h75.8v28.2h-75.6v25h77z m84.4-80.2h-64.4l-0.2-29.6H976c29.6 0 52.4 11.2 52.4 44 0 66.4-85.8 22.4-85.8 52.6 0 11.2 9.8 12.8 18.4 12.8h60.8V359h-66.4c-25.6 0-47-13.2-47-41.4 0-66 85.4-25 85.4-54.8-0.2-10.8-9.4-12.8-17.6-12.8zM820 567.4c-34.8 0.6-66.4 8.2-66.4-39.4 0-23.6 5.6-39.8 32.2-39.8h14.8l47 109h49.6L953 466.4V597.2h50.6l58.2-96.2v96.2h33.8v-138h-47.2L986 563v-103.8h-67.4l-13.2 30.6h-68.6L824 459.2h-38.4c-45.6 0-66 23.6-66 68 0 46.6 21 70.6 68 70.6h32.2v-30.4z m28.6-49h45.6l-22.4 55.2-23.2-55.2z m-145.2 79.2h-33.8V459h33.8V597.6zM627.2 523c19-6.6 22-18.4 22-36.8v-27H616c-0.6 29.6 7.2 50.2-29.6 50.2h-36v-50.2h-32.8V597.8l78.2-0.6c26.6 0 54.8-4 54.8-36.8 0.2-16-8.6-31.4-23.4-37.4z m-13.4 30.6c0 12.8-11.2 14.8-21.4 14.8h-42v-30.6h41.4c11.4 0 22 2.6 22 15.8z m-119 14.8v29.2h-111V459h111v28.6H417v27.6h75.6v28.2H417v25h77.8zM325.6 459V567.4l-48-108.4h-29.2l-48 108.4V459h-67.6L120 489.6H51L38.2 459H2.4l59.4 138.6h49L167 466.2V597.6h54.2l43.4-94 39.4 94h55.2V459h-33.6z m-217.4 59.4l-23 55.2-22.4-55.2h45.4z m506-205c0-55.8-60.8-46.6-98.6-46.6l-0.2-46.6H451l-40.8 46-42.6-46H236.8l0.2 138.6h133l41-45.6 42 45.6h105.4c31.2 0 55.8-10.8 55.8-45.4z m-225.4-23.6L353 330.2h-83.4v-25h72.6V277h-72.6v-27.6h81.2l38 40.4z m93.6 54.2l-50.6-54.8 50.6-56.2V344z m96.6-30.6c0 12.2-9.2 16.8-20.4 16.8h-43V295H558c11.8 0 21 5.6 21 18.4z"  horiz-adv-x="1152" />

    
    <glyph glyph-name="amilia" unicode="&#60662;" d="M531.483307 887.466667c-140.250453 0-298.06592-38.249813-417.634987-125.51168-11.615573-7.082667-20.6848-20.97152-16.14848-43.915947 2.266453-11.615573 11.332267-62.334293 22.951253-89.81504 9.34912-23.23456 32.300373-23.23456 46.1824-13.878613 73.66656 50.425173 218.733227 108.22656 345.09824 108.22656 131.18464 0 133.451093-64.600747 133.451094-165.75488v-87.261867c-198.048427-25.780907-480.815787-78.482773-552.215894-108.516693C12.701013 324.1984 24.03328 149.097813 24.03328 107.731627S58.600107-128 307.367253-128c108.233387 0 257.549653 47.03232 347.368107 95.204693v-57.238186c0-6.79936 4.819627-18.701653 13.882027-20.968107 7.082667-2.266453 114.74944-4.532907 135.717546-4.532907 20.97152 0 141.666987-0.566613 150.7328 1.69984s11.332267 14.16192 11.332267 20.968107V579.201707c0 181.899947-130.901333 308.26496-434.916693 308.26496zM332.301653 144.56832c0 27.767467-6.79936 96.90112 41.366187 120.128853 54.96832 29.754027 170.284373 66.587307 271.43168 75.933014v-241.967787c-48.448853-30.03392-110.216533-55.534933-179.06688-55.534933-119.84896 0.006827-133.730987 76.223147-133.730987 101.440853"  horiz-adv-x="1024" />

    
    <glyph glyph-name="anchor" unicode="&#60663;" d="M516.051627 858.606933c-56.69888 0-103.24992-46.554453-103.24992-103.24992 0-48.9984 34.648747-89.954987 80.14848-100.4544v-70.673066H394.103467v-46.196054h98.843306v-527.479466a376.183467 376.183467 0 0 0-350.999893 320.1024l36.10624 0.003413s22.644053-2.310827 32.09216 6.089387c9.448107 8.400213 10.151253 23.108267 2.0992 32.549546l-80.500053 91.6992c-4.901547 5.60128-12.598613 8.748373-20.299094 7.348907-5.60128-0.699733-10.499413-3.15392-14.001493-7.348907L17.29536 369.298773c-8.400213-9.45152-7.70048-24.149333 2.0992-32.549546 9.45152-8.3968 31.42656-6.089387 31.42656-6.089387h44.837547c27.917653-207.387307 205.284693-366.660267 420.386133-366.660267 215.108267 0 392.768853 159.27296 420.46464 366.660267h45.0048s21.736107-2.310827 31.535787 6.089387 9.79968 23.108267 1.399466 32.549546l-79.80032 91.6992c-5.604693 5.60128-12.598613 8.748373-20.299093 7.345494-5.604693-0.69632-10.499413-3.150507-14.004907-7.345494l-80.500053-91.6992c-8.400213-9.45152-7.345493-24.149333 2.0992-32.549546 9.79968-8.3968 32.32768-6.089387 32.32768-6.089387h35.61472c-26.013013-175.168853-170.748587-309.61664-350.74048-320.1024V538.033493h98.853547V584.23296h-98.853547V654.906027c45.499733 10.499413 80.14848 51.449173 80.14848 100.4544 0.006827 56.695467-46.544213 103.246507-103.243093 103.246506z m0-45.851306a57.204053 57.204053 0 0 0 57.3952-57.3952c0-32.2048-25.545387-57.398613-57.3952-57.398614s-57.398613 25.197227-57.398614 57.398614a57.204053 57.204053 0 0 0 57.398614 57.3952z"  horiz-adv-x="1024" />

    
    <glyph glyph-name="anchor-square" unicode="&#60666;" d="M780.007 830.733H243.903c-98.6 0-178.612-80.014-178.612-178.745v-536.105c0-98.643 80.013-178.613 178.612-178.613h536.105c98.773 0 178.701 79.969 178.701 178.613V651.988c0 98.731-79.928 178.745-178.702 178.745z m89.438-670.175c0-73.994-60.119-133.981-134.113-133.981H288.579c-73.994 0-133.94 59.987-133.94 133.981V607.312c0 74.038 59.946 134.114 133.94 134.114h446.753c73.994 0 134.113-60.076 134.113-134.114v-446.754z m-178.789 134.07h31.849c-17.974-34.335-61.08-77.658-165.874-87.256v266h89.437l-44.676 44.632h-44.761v12.391c26.612 15.488 44.761 43.935 44.761 76.916 0 49.387-40.05 89.437-89.437 89.437s-89.35-40.051-89.35-89.437c0-32.981 18.06-61.428 44.675-76.916v-12.391h-44.676l-44.587-44.632h89.263v-266c-105.407 9.728-148.511 52.92-166.136 87.256h32.196L266.328 428.61l-67.1-133.983h56.194c19.283-48.47 71.287-120.63 211.858-132.411v-1.659l44.675-89.349 44.676 89.349v2.357c139.086 13.437 191.44 84.026 211.42 131.713h56.63L759.066 428.61l-68.41-133.983z m-178.7 268.053c-24.608 0-44.676 20.026-44.676 44.631 0 24.737 20.068 44.676 44.675 44.676 24.782 0 44.676-19.939 44.676-44.676 0-24.605-19.894-44.631-44.676-44.631z"  horiz-adv-x="1024" />

    
    <glyph glyph-name="android" unicode="&#60668;" d="M259.467947 493.59872v-246.934187c0-33.068373-25.86624-59.204267-58.668374-59.204266S136.533333 213.858987 136.533333 246.664533v246.934187c0 32.26624 31.46752 58.668373 64.26624 58.668373 32.26624-0.003413 58.668373-26.402133 58.668374-58.668373z m22.930773-334.936747c0-34.932053 28.265813-62.93504 63.20128-62.93504h42.400427l0.79872-130.665813c0-78.400853 117.599573-77.868373 117.599573 0v130.669227h79.469227v-130.6624c0-78.404267 118.401707-78.404267 118.401706 0v130.6624h42.932907c34.665813 0 62.93504 27.999573 62.93504 62.93504V541.330773H282.39872v-382.6688z m529.066667 403.469654H279.999147c0 91.200853 54.667947 170.666667 135.734613 211.995306l-40.799573 75.199147c-5.86752 10.666667 9.332053 17.066667 14.400853 8.267093l41.332053-76.00128c74.400427 33.068373 160 31.46752 231.19872 0l41.065814 75.73504c5.33504 9.065813 20.268373 2.399573 14.400853-8.000853l-40.799573-75.199147c80.267947-41.32864 134.93248-120.797867 134.93248-211.995306z m-363.997867 118.398293c0 12.004693-9.867947 22.401707-22.401707 22.401707-12.26752 0-21.865813-10.400427-21.865813-22.401707 0-12.26752 9.867947-22.401707 21.865813-22.401707a22.367573 22.367573 0 0 1 22.401707 22.401707z m241.865387 0c0 12.004693-9.867947 22.401707-21.865814 22.401707-12.53376 0-22.401707-10.400427-22.401706-22.401707a22.36416 22.36416 0 0 1 22.401706-22.401707c12.00128 0.003413 21.865813 10.134187 21.865814 22.401707z m202.400426-128.26624c-32.53248 0-58.668373-25.86624-58.668373-58.668373v-246.9376c0-33.068373 26.129067-59.200853 58.668373-59.200854S955.733333 213.8624 955.733333 246.664533v246.934187c0 32.79872-31.46752 58.66496-64 58.66496z"  horiz-adv-x="1024" />

    
    <glyph glyph-name="anchor-r" unicode="&#60669;" d="M55.657813 224.713387h53.74976c36.184747-170.461867 226.618027-265.48224 402.592427-265.48224 176.26112 0 366.452053 95.208107 402.592427 265.48224h53.74976c17.742507 0 26.624 21.44256 14.08 33.98656l-111.220054 111.220053a19.913387 19.913387 0 0 1-28.16 0l-111.21664-111.220053c-12.544-12.544-3.65568-33.98656 14.076587-33.98656h58.320213c-33.665707-90.125653-140.977493-143.674027-239.127893-155.99616V384h86.275413a19.909973 19.909973 0 0 1 19.913387 19.913387V470.28224a19.913387 19.913387 0 0 1-19.913387 19.909973h-86.275413V537.6c61.856427 21.869227 106.17856 80.851627 106.1888 150.196907 0.01024 86.678187-70.33856 158.081707-157.013333 159.290026-89.012907 1.242453-161.559893-70.54336-161.559894-159.27296 0-69.35552 44.32896-128.341333 106.192214-150.213973v-47.4112H372.62336a19.909973 19.909973 0 0 1-19.913387-19.909973v-66.368854a19.909973 19.909973 0 0 1 19.913387-19.913386h86.278827v-315.282774c-97.788587 12.27776-205.448533 65.836373-239.127894 155.99616h58.3168c17.73568 0 26.624 21.44256 14.08 33.98656L180.954453 369.92a19.913387 19.913387 0 0 1-28.16 0l-111.21664-111.220053c-12.544-12.544-3.662507-33.98656 14.08-33.98656zM512 740.9152c29.279573 0 53.097813-23.821653 53.097813-53.097813S541.279573 634.719573 512 634.719573 458.902187 658.537813 458.902187 687.817387 482.720427 740.9152 512 740.9152z"  horiz-adv-x="1024" />

    
    <glyph glyph-name="angellist" unicode="&#60670;" d="M724.76672 459.834027c21.69856 60.904107 84.698453 236.837547 84.698453 293.30432 0 49.466027-29.39904 91.234987-81.667413 91.234986-83.070293 0-157.73696-245.93408-181.070507-304.500053C528.534187 593.066667 443.83232 861.866667 369.165653 861.866667c-58.098347 0-85.4016-42.7008-85.4016-96.600747 0-65.798827 63.931733-236.598613 87.033174-302.400853-11.666773 4.43392-24.500907 8.168107-37.33504 8.168106-43.63264 0-90.067627-54.367573-90.067627-98.228906 0-16.56832 9.099947-39.898453 14.933333-55.538347-69.065387-18.66752-95.433387-64.39936-95.433386-133.700267C162.665813 48.933547 290.300587-93.866667 469.968213-93.866667c220.265813 0 357.23264 165.198507 357.23264 378.699094 0 80.500053-13.06624 153.06752-102.434133 175.0016z m-66.034347 200.434346c7.468373 22.86592 39.19872 119.934293 69.065387 119.934294 16.329387 0 20.534613-16.56832 20.534613-29.866667 0-35.467947-72.09984-232.400213-87.965013-276.268373l-63.46752 11.195733 61.832533 175.005013z m-316.398933 111.530667c0 22.166187 27.067733 85.16608 86.565547-87.965013l64.63488-187.368107c-29.166933 2.566827-51.800747 5.60128-66.266454-2.566827-20.299093 53.899947-84.933973 223.535787-84.933973 277.899947z m-4.201813-365.397333c54.59968 0 125.300053-176.633173 125.300053-200.43776 0-9.567573-9.099947-21.234347-19.83488-21.234347-38.966613 0-143.499947 143.499947-143.499947 182.237867 0.23552 14.465707 23.569067 39.43424 38.034774 39.43424z m343.934293-347.66848c-54.132053-59.733333-123.665067-90.999467-204.632747-90.999467-110.834347 0-198.567253 61.1328-240.56832 165.198507-31.965867 80.73216 7.000747 127.399253 38.26688 127.399253 21.466453 0 101.49888-112.704853 101.49888-136.738133 0-8.86784-14.465707-15.40096-21.93408-15.40096-30.098773 0-41.765547 28.934827-95.433386 96.13312-55.299413-55.538347 38.26688-162.399573 108.967253-162.399574 48.766293 0 80.500053 45.267627 70.93248 78.400854 6.765227 0 15.40096-0.467627 21.69856 1.399466 2.0992-50.86208 17.032533-111.066453 77.933227-115.268266 0 1.399467 3.734187 13.06624 3.734186 13.533866 0 32.6656-19.83488 61.1328-19.83488 94.266027 0 52.729173 40.6016 103.8336 81.667414 133.700267 14.933333 11.195733 32.904533 17.967787 50.633386 24.500906 17.9712 6.765227 37.33504 14.933333 51.104427 28.699307-2.0992 20.76672-10.738347 39.43424-31.501653 39.43424-51.800747 0-225.16736-7.468373-225.16736 73.966933 0 12.598613 0.232107 24.500907 32.433493 24.500907 60.20096 0 213.265067-14.933333 258.065067-54.367573 34.071893-30.091947 45.27104-211.15904-57.862827-325.95968z m-183.866027 235.199146c17.967787-5.833387 36.631893-7.468373 55.299414-11.199146-13.765973-10.267307-26.13248-22.401707-37.799254-35.700054-5.36576 15.865173-11.666773 31.266133-17.50016 46.8992z"  horiz-adv-x="1024" />

    
    <glyph glyph-name="angle-circle-down-s" unicode="&#60671;" d="M512 864c-64.781 0-127.688-12.656-186.844-37.781-57.187-24.094-108.469-58.781-152.531-102.844S93.969 627.937 69.781 570.844C44.75 511.688 32 448.78 32 384s12.656-127.688 37.781-186.844c24.094-57.187 58.781-108.468 102.844-152.531s95.438-78.656 152.531-102.844C384.312-83.25 447.22-96 512-96s127.688 12.656 186.844 37.781c57.187 24.094 108.468 58.782 152.531 102.844s78.75 95.344 102.844 152.531C979.344 256.313 992 319.22 992 384s-12.656 127.688-37.781 186.844c-24.094 57.187-58.782 108.469-102.844 152.531s-95.344 78.75-152.531 102.844C639.687 851.344 576.78 864 512 864z m0-569.156L705.594 488.53c13.218 13.219 34.593 13.219 47.718 0 13.22-13.218 13.22-34.593 0-47.718l-217.406-217.5c-13.218-13.22-34.593-13.22-47.718 0l-217.5 217.406c-6.563 6.562-9.844 15.187-9.844 23.906s3.281 17.25 9.844 23.906c13.218 13.219 34.593 13.219 47.718 0L512 294.844z"  horiz-adv-x="1024" />

    
    <glyph glyph-name="angle-circle-left-s" unicode="&#60672;" d="M32 384c0-64.781 12.656-127.688 37.781-186.844 24.094-57.187 58.781-108.468 102.844-152.531s95.438-78.656 152.531-102.844C384.312-83.25 447.22-96 512-96s127.688 12.656 186.844 37.781c57.187 24.094 108.468 58.782 152.531 102.844s78.656 95.438 102.844 152.531C979.25 256.313 992 319.22 992 384s-12.656 127.688-37.781 186.844c-24.094 57.187-58.782 108.469-102.844 152.531s-95.344 78.75-152.531 102.844C639.687 851.344 576.78 864 512 864S384.312 851.344 325.156 826.219c-57.187-24.094-108.469-58.781-152.531-102.844s-78.75-95.344-102.844-152.531C44.656 511.688 32 448.78 32 384z m569.156 0L407.47 577.594c-13.219 13.219-13.219 34.594 0 47.719 13.219 13.218 34.594 13.218 47.719 0l217.5-217.407c13.218-13.219 13.218-34.594 0-47.719l-217.407-217.5c-6.562-6.562-15.187-9.843-23.906-9.843s-17.25 3.281-23.906 9.843c-13.219 13.22-13.219 34.594 0 47.72L601.156 384z"  horiz-adv-x="1024" />

    
    <glyph glyph-name="angle-circle-right-s" unicode="&#60676;" d="M992 384c0 64.781-12.656 127.688-37.781 186.844-24.094 57.187-58.782 108.469-102.844 152.531S755.937 802.031 698.844 826.219C639.687 851.25 576.78 864 512 864S384.312 851.344 325.156 826.219c-57.187-24.094-108.469-58.781-152.531-102.844S93.969 627.937 69.781 570.844C44.75 511.688 32 448.78 32 384s12.656-127.688 37.781-186.844c24.094-57.187 58.781-108.468 102.844-152.531s95.344-78.75 152.531-102.844C384.312-83.344 447.22-96 512-96s127.688 12.656 186.844 37.781c57.187 24.094 108.468 58.782 152.531 102.844s78.75 95.344 102.844 152.531C979.344 256.313 992 319.22 992 384z m-569.156 0L616.53 190.406c13.219-13.218 13.219-34.593 0-47.718-13.218-13.22-34.593-13.22-47.718 0l-217.5 217.406c-13.22 13.218-13.22 34.593 0 47.718l217.406 217.5c6.562 6.563 15.187 9.844 23.906 9.844s17.25-3.281 23.906-9.844c13.219-13.218 13.219-34.593 0-47.718L422.844 384z"  horiz-adv-x="1024" />

    
    <glyph glyph-name="angle-circle-up-s" unicode="&#60678;" d="M512-96c64.781 0 127.688 12.656 186.844 37.781 57.187 24.094 108.468 58.782 152.531 102.844s78.656 95.438 102.844 152.531C979.25 256.313 992 319.22 992 384s-12.656 127.688-37.781 186.844c-24.094 57.187-58.782 108.469-102.844 152.531S755.937 802.031 698.844 826.219C639.687 851.25 576.78 864 512 864S384.312 851.344 325.156 826.219c-57.187-24.094-108.469-58.781-152.531-102.844s-78.75-95.344-102.844-152.531C44.656 511.688 32 448.78 32 384s12.656-127.688 37.781-186.844c24.094-57.187 58.781-108.468 102.844-152.531s95.344-78.75 152.531-102.844C384.312-83.344 447.22-96 512-96z m0 569.156L318.406 279.47c-13.219-13.219-34.594-13.219-47.719 0-13.218 13.218-13.218 34.593 0 47.718l217.407 217.5c13.219 13.22 34.594 13.22 47.719 0l217.5-217.406c6.562-6.562 9.843-15.187 9.843-23.906s-3.281-17.25-9.843-23.906c-13.22-13.219-34.594-13.219-47.72 0L512 473.156z"  horiz-adv-x="1024" />

    
    <glyph glyph-name="angle-double-down" unicode="&#60679;" d="M853.15 453.864a29.026 29.026 0 0 0 19.733-8.802l41.674-41.67c5.064-5.064 8.403-12.605 8.403-19.338s-3.393-14.328-8.403-19.337L522.36-27.482c-5.064-5.064-12.605-8.403-19.338-8.403s-14.328 3.394-19.337 8.403L91.485 364.717c-5.064 5.064-8.403 12.605-8.403 19.337s3.394 14.329 8.403 19.338l42.069 42.069c5.064 5.064 12.605 8.403 19.338 8.403s14.328-3.394 19.337-8.403l330.79-330.79L833.81 445.46a28.772 28.772 0 0 0 19.833 8.416z m0 323.196a29.026 29.026 0 0 0 19.733-8.802l41.674-41.67c5.064-5.063 8.403-12.605 8.403-19.337s-3.393-14.329-8.403-19.338L522.36 295.715c-5.064-5.064-12.605-8.403-19.338-8.403s-14.328 3.393-19.337 8.403L91.485 687.913c-5.064 5.064-8.403 12.605-8.403 19.338s3.394 14.328 8.403 19.337l42.069 42.07c5.064 5.063 12.605 8.402 19.338 8.402s14.328-3.393 19.337-8.403l330.79-330.79 330.791 330.79a28.772 28.772 0 0 0 19.833 8.416z"  horiz-adv-x="1024" />

    
    <glyph glyph-name="angle-double-down-o" unicode="&#60680;" d="M91.81 709.467a22.262 22.262 0 0 0 37.63 15.872l383.062-375.524L894.561 725.34a22.12 22.12 0 1 0 31.024-31.671L512.502 287.767 98.413 693.597a22.694 22.694 0 0 0-6.606 15.87zM91.81 458.113a22.262 22.262 0 0 0 37.63 15.872l383.062-375.523 382.059 375.523a22.19 22.19 0 0 0 31.024-31.6l-413.083-405.9-414.089 405.83a22.407 22.407 0 0 0-6.606 15.798z"  horiz-adv-x="1024" />

    
    <glyph glyph-name="angle-double-down-r" unicode="&#60681;" d="M508.784 322.125a112.978 112.978 0 0 0-73.245 26.893L124.18 613.49A113.118 113.118 0 1 0 270.67 785.91l238.115-202.256L746.896 785.91a113.118 113.118 0 0 0 146.49-172.421L582.027 349.018a112.835 112.835 0 0 0-73.244-26.893z m73.272-340.006l311.302 264.47A113.118 113.118 0 1 1 746.87 418.983L508.812 216.725 270.64 418.982a113.118 113.118 0 1 1-146.433-172.421L435.623-17.91a112.835 112.835 0 0 1 73.187-26.894c26.075 0 52.148 8.965 73.244 26.923z"  horiz-adv-x="1024" />

    
    <glyph glyph-name="angle-double-left-o" unicode="&#60682;" d="M837.467 804.19a22.262 22.262 0 0 0 15.872-37.63L477.815 383.499 853.34 1.439a22.12 22.12 0 1 0-31.671-31.024L415.767 383.498l405.83 414.089a22.694 22.694 0 0 0 15.87 6.606zM586.113 804.19a22.262 22.262 0 0 0 15.872-37.63L226.462 383.499l375.523-382.059a22.19 22.19 0 0 0-31.6-31.024l-405.9 413.083 405.83 414.089a22.407 22.407 0 0 0 15.798 6.606z"  horiz-adv-x="1024" />

    
    <glyph glyph-name="angle-double-left" unicode="&#60683;" d="M581.864 42.85a29.026 29.026 0 0 0-8.802-19.733l-41.67-41.674c-5.064-5.064-12.605-8.403-19.338-8.403s-14.328 3.393-19.337 8.403L100.518 373.64c-5.064 5.064-8.403 12.605-8.403 19.338s3.394 14.328 8.403 19.337L492.717 804.515c5.064 5.064 12.605 8.403 19.337 8.403s14.329-3.394 19.338-8.403l42.069-42.069c5.064-5.064 8.403-12.605 8.403-19.338s-3.394-14.328-8.403-19.337l-330.79-330.79L573.46 62.19a28.772 28.772 0 0 0 8.416-19.833z m323.196 0a29.026 29.026 0 0 0-8.802-19.733l-41.67-41.674c-5.063-5.064-12.605-8.403-19.337-8.403s-14.329 3.393-19.338 8.403L423.715 373.64c-5.064 5.064-8.403 12.605-8.403 19.338s3.393 14.328 8.403 19.337L815.913 804.515c5.064 5.064 12.605 8.403 19.338 8.403s14.328-3.394 19.337-8.403l42.07-42.069c5.063-5.064 8.402-12.605 8.402-19.338s-3.393-14.328-8.403-19.337l-330.79-330.79 330.79-330.791a28.772 28.772 0 0 0 8.416-19.833z"  horiz-adv-x="1024" />

    
    <glyph glyph-name="angle-double-left-r" unicode="&#60684;" d="M446.6688 383.79008a112.9472 112.9472 0 0 0 26.89536 73.24672l264.46848 311.35744c40.45312 47.61088 111.8464 53.41696 159.45728 12.96384s53.42208-111.84128 12.96384-159.45728l-202.25536-238.11584 202.25536-238.11072c40.45312-47.616 34.64704-119.00416-12.96384-159.45728s-119.00416-34.65216-159.4624 12.96384l-264.46336 311.35744a112.86016 112.86016 0 0 0-26.89536 73.25184z m-340.00384-73.27232l264.46848-311.30624c39.97184-48.01536 111.28832-54.53824 159.30368-14.57152 48.02048 39.97184 54.54336 111.28832 14.58176 159.3088a122.07104 122.07104 0 0 1-1.48992 1.75104l-202.26048 238.05952 202.26048 238.17216c41.14944 47.00672 36.39808 118.47168-10.60864 159.62112-47.00672 41.14944-118.47168 36.39808-159.62112-10.60352-0.74752-0.84992-1.47456-1.71008-2.19648-2.5856L106.63424 456.95488a112.78336 112.78336 0 0 1-26.89024-73.18528 112.7424 112.7424 0 0 1 26.92096-73.25184z"  horiz-adv-x="1024" />

    
    <glyph glyph-name="angle-double-right" unicode="&#60685;" d="M442.136 725.15a29.026 29.026 0 0 0 8.802 19.733l41.67 41.674c5.064 5.064 12.605 8.403 19.338 8.403s14.328-3.393 19.337-8.403L923.482 394.36c5.064-5.064 8.403-12.605 8.403-19.338s-3.394-14.328-8.403-19.337L531.283-36.515c-5.064-5.064-12.605-8.403-19.337-8.403s-14.329 3.394-19.338 8.403l-42.069 42.069c-5.064 5.064-8.403 12.605-8.403 19.338s3.394 14.328 8.403 19.337l330.79 330.79L450.54 705.81a28.772 28.772 0 0 0-8.416 19.833z m-323.196 0a29.026 29.026 0 0 0 8.802 19.733l41.67 41.674c5.063 5.064 12.605 8.403 19.337 8.403s14.329-3.393 19.338-8.403L600.285 394.36c5.064-5.064 8.403-12.605 8.403-19.338s-3.393-14.328-8.403-19.337L208.087-36.515c-5.064-5.064-12.605-8.403-19.338-8.403s-14.328 3.394-19.337 8.403l-42.07 42.069c-5.063 5.064-8.402 12.605-8.402 19.338s3.393 14.328 8.403 19.337l330.79 330.79-330.79 330.791a28.772 28.772 0 0 0-8.416 19.833z"  horiz-adv-x="1024" />

    
    <glyph glyph-name="angle-double-right-o" unicode="&#60686;" d="M186.533-36.19a22.262 22.262 0 0 0-15.872 37.63l375.524 383.062L170.66 766.561a22.12 22.12 0 1 0 31.671 31.024l405.901-413.083-405.83-414.089a22.694 22.694 0 0 0-15.87-6.606zM437.887-36.19a22.262 22.262 0 0 0-15.872 37.63l375.523 383.062-375.523 382.059a22.19 22.19 0 0 0 31.6 31.024l405.9-413.083-405.83-414.089a22.407 22.407 0 0 0-15.798-6.606z"  horiz-adv-x="1024" />

    
    <glyph glyph-name="angle-double-up" unicode="&#60687;" d="M170.85 314.136a29.026 29.026 0 0 0-19.733 8.802l-41.674 41.67c-5.064 5.064-8.403 12.605-8.403 19.338s3.393 14.328 8.403 19.337L501.64 795.482c5.064 5.064 12.605 8.403 19.338 8.403s14.328-3.394 19.337-8.403l392.199-392.199c5.064-5.064 8.403-12.605 8.403-19.337s-3.394-14.329-8.403-19.338l-42.069-42.069c-5.064-5.064-12.605-8.403-19.338-8.403s-14.328 3.394-19.337 8.403l-330.79 330.79L190.19 322.54a28.772 28.772 0 0 0-19.833-8.416z m0-323.196a29.026 29.026 0 0 0-19.733 8.802l-41.674 41.67c-5.064 5.063-8.403 12.605-8.403 19.337s3.393 14.329 8.403 19.338L501.64 472.285c5.064 5.064 12.605 8.403 19.338 8.403s14.328-3.393 19.337-8.403l392.199-392.198c5.064-5.064 8.403-12.605 8.403-19.338s-3.394-14.328-8.403-19.337l-42.069-42.07c-5.064-5.063-12.605-8.402-19.338-8.402s-14.328 3.393-19.337 8.403l-330.79 330.79-330.791-330.79a28.772 28.772 0 0 0-19.833-8.416z"  horiz-adv-x="1024" />

    
    <glyph glyph-name="angle-double-right-r" unicode="&#60688;" d="M573.89568 387.66592a112.9728 112.9728 0 0 0-26.89024-73.24672l-264.4736-311.35744c-40.448-47.616-111.84128-53.42208-159.45728-12.96896-47.616 40.45312-53.41696 111.8464-12.96384 159.45728l202.25536 238.11584-202.25536 238.11584c-40.448 47.61088-34.65216 118.99904 12.96384 159.45216s119.00416 34.65216 159.45728-12.96384l264.4736-311.35744a112.86016 112.86016 0 0 0 26.89024-73.24672z m340.00896 73.2672l-264.4736 311.30624c-39.96672 48.01536-111.28832 54.53824-159.3088 14.57152-48.01536-39.96672-54.53824-111.28832-14.57152-159.30368 0.49152-0.5888 0.98304-1.17248 1.48992-1.75616l202.25536-238.05952-202.25536-238.17216c-41.14944-47.00672-36.39808-118.47168 10.60352-159.62112s118.47168-36.39808 159.62112 10.60352c0.74752 0.84992 1.47456 1.71008 2.19648 2.5856l264.46848 311.41376a112.81408 112.81408 0 0 1 26.89536 73.18528 112.76288 112.76288 0 0 1-26.92096 73.24672z"  horiz-adv-x="1024" />

    
    <glyph glyph-name="angle-double-up-r" unicode="&#60689;" d="M515.216 445.875a112.978 112.978 0 0 0 73.245-26.893L899.82 154.51A113.118 113.118 0 1 0 753.33-17.91L515.216 184.346 277.104-17.91a113.118 113.118 0 0 0-146.49 172.421l311.358 264.471a112.835 112.835 0 0 0 73.244 26.893z m-73.272 340.006l-311.302-264.47A113.118 113.118 0 1 1 277.13 349.017l238.058 202.257L753.36 349.018a113.118 113.118 0 1 1 146.433 172.421L588.377 785.91a112.835 112.835 0 0 1-73.187 26.894c-26.075 0-52.148-8.965-73.244-26.923z"  horiz-adv-x="1024" />

    
    <glyph glyph-name="angle-double-up-o" unicode="&#60690;" d="M932.19 58.533a22.262 22.262 0 0 0-37.63-15.872L511.499 418.185 129.439 42.66a22.12 22.12 0 1 0-31.024 31.671l413.083 405.901 414.089-405.83a22.694 22.694 0 0 0 6.606-15.87zM932.19 309.887a22.262 22.262 0 0 0-37.63-15.872L511.499 669.538 129.439 294.015a22.19 22.19 0 0 0-31.024 31.6l413.083 405.9 414.089-405.83a22.407 22.407 0 0 0 6.606-15.798z"  horiz-adv-x="1024" />

    
    <glyph glyph-name="angle-down" unicode="&#60691;" d="M503.86432 152.56576a21.72928 21.72928 0 0 0 6.38976 15.40096l435.79904 435.79904a21.80608 21.80608 0 0 0 30.84288 0 21.80096 21.80096 0 0 0 0-30.848l-435.79392-435.79904a21.8112 21.8112 0 0 0-37.23776 15.44704zM40.81664 615.5776c0 5.5808 2.16064 11.16672 6.42048 15.42656a21.80608 21.80608 0 0 0 30.84288 0l463.0272-463.04256a21.8112 21.8112 0 1 0-30.848-30.848L47.23712 600.15616a21.78048 21.78048 0 0 0-6.42048 15.42144z"  horiz-adv-x="1024" />

    
    <glyph glyph-name="angle-down-r" unicode="&#60692;" d="M551.936 623.552L951.168 224.32c22.08-22.08 22.08-57.792 0-79.872-22.016-22.016-57.792-22.08-79.872 0L512 503.744 152.704 144.448c-22.016-22.016-57.792-22.08-79.872 0s-22.016 57.792 0 79.872l399.232 399.232c22.08 22.016 57.792 22.016 79.872 0z"  horiz-adv-x="1024" />

    
    <glyph glyph-name="angle-left-r" unicode="&#60693;" d="M272.448 423.936L671.68 823.168c22.08 22.08 57.792 22.08 79.872 0 22.016-22.016 22.08-57.792 0-79.872L392.256 384l359.296-359.296c22.016-22.016 22.08-57.792 0-79.872s-57.792-22.016-79.872 0L272.448 344.064c-22.016 22.08-22.016 57.792 0 79.872z"  horiz-adv-x="1024" />

    
    <glyph glyph-name="angle-left" unicode="&#60694;" d="M280.453 392.13a21.707 21.707 0 0 0 15.396-6.39l435.798-435.798c8.522-8.52 8.522-22.325 0-30.847-8.52-8.522-22.326-8.522-30.848 0L265.003 354.892c-8.522 8.521-8.522 22.326 0 30.848 4.26 4.26 9.855 6.39 15.451 6.39zM743.463 855.183c5.581 0 11.164-2.16 15.424-6.42 8.522-8.521 8.522-22.326 0-30.848L295.848 354.892c-8.522-8.522-22.325-8.522-30.847 0s-8.522 22.326 0 30.848L728.039 848.764c4.26 4.26 9.843 6.419 15.424 6.419z"  horiz-adv-x="1024" />

    
    <glyph glyph-name="angle-right-r" unicode="&#60695;" d="M751.552 344.064L352.32-55.168c-22.08-22.08-57.792-22.08-79.872 0-22.016 22.016-22.08 57.792 0 79.872L631.744 384 272.448 743.296c-22.016 22.016-22.08 57.792 0 79.872s57.792 22.016 79.872 0l399.232-399.232c22.016-22.08 22.016-57.792 0-79.872z"  horiz-adv-x="1024" />

    
    <glyph glyph-name="angle-right" unicode="&#60696;" d="M743.55712 375.7568a21.7088 21.7088 0 0 0-15.40096 6.38976L292.35712 817.9456c-8.51968 8.51968-8.51968 22.31808 0 30.84288s22.3232 8.5248 30.848 0l435.79904-435.79392a21.8112 21.8112 0 0 0-15.44704-37.23776zM280.54016-87.30112a21.7856 21.7856 0 0 0-15.42656 6.42048 21.8112 21.8112 0 0 0 0 30.848l463.03744 463.0272a21.8112 21.8112 0 1 0 30.848-30.848l-463.04256-463.0272a21.74464 21.74464 0 0 0-15.41632-6.42048z"  horiz-adv-x="1024" />

    
    <glyph glyph-name="angle-square-down" unicode="&#60697;" d="M898.595 771.66c-6.277 6.278-14.815 10.276-24.51 10.276H150.3c-9.688 0-18.236-3.998-24.503-10.276-6.268-6.277-9.687-14.834-9.687-24.53v-724.568c0-9.118 3.42-18.235 9.687-24.534 6.267-6.257 14.815-9.695 24.503-9.695h723.784c9.697 0 18.234 3.437 24.511 9.695 6.259 6.298 10.257 15.415 10.257 24.534V747.13c0 9.697-3.998 18.254-10.257 24.531zM150.3-63.589c-23.365 0-45.017 9.697-60.972 25.112-15.396 15.973-25.082 37.665-25.082 61.038V747.13c0 23.97 9.686 45.644 25.082 61.057 15.955 15.396 37.607 25.092 60.972 25.092h723.784c23.933 0 45.586-9.696 60.98-25.092 15.397-15.414 25.073-37.087 25.073-61.057v-724.567c0-23.374-9.676-45.065-25.073-61.038-15.394-15.415-37.047-25.112-60.98-25.112H150.3v-0.001z m573.89 324.067c-0.56 0-1.14 0.56-1.698 0.56l-0.58-1.121-5.7 5.139-204.016 185.416-203.457-185.415-5.697-4.58-0.57 0.562c-0.57 0-1.14-0.561-1.708-0.561-3.42-1.14-6.27-1.72-9.697-1.72-6.84 0-13.676 2.86-18.235 7.419-4.56 4.557-7.407 10.854-7.407 18.273 0 3.418 0.57 6.836 2.279 10.254 0.57 1.72 1.71 3.42 2.85 5.138v0.562l3.418 2.858 221.132 201.389 5.127 5.139 0.57-1.14c0.571 0.58 1.71 0.58 2.28 1.14 2.85 1.138 5.7 1.72 9.118 1.72s6.259-0.581 9.676-1.72c0.58-0.56 1.14-0.56 2.28-1.14l0.58 0.58 5.139-4.58 221.111-201.39 2.859-2.858v-0.562c1.14-1.719 2.28-3.42 3.42-5.138 1.14-3.419 2.28-6.838 2.28-10.254 0-7.42-3.42-13.716-7.98-18.273-4.557-4.56-10.836-7.42-18.253-7.42-3.404 0.002-6.262 0.583-9.12 1.722z"  horiz-adv-x="1024" />

    
    <glyph glyph-name="angle-square-left" unicode="&#60698;" d="M124.34 770.595c-6.278-6.277-10.276-14.815-10.276-24.51V22.3c0-9.688 3.998-18.236 10.276-24.503 6.277-6.268 14.834-9.687 24.53-9.687h724.568c9.118 0 18.235 3.42 24.534 9.687 6.257 6.267 9.695 14.815 9.695 24.503V746.084c0 9.697-3.437 18.234-9.695 24.511-6.298 6.259-15.415 10.257-24.534 10.257H148.87c-9.697 0-18.254-3.998-24.531-10.257zM959.589 22.3c0-23.365-9.697-45.017-25.112-60.972-15.973-15.396-37.665-25.082-61.038-25.082H148.87c-23.97 0-45.644 9.686-61.057 25.082-15.396 15.955-25.092 37.607-25.092 60.972V746.084c0 23.933 9.696 45.586 25.092 60.98 15.414 15.397 37.087 25.073 61.057 25.073h724.567c23.374 0 45.065-9.676 61.038-25.073 15.415-15.394 25.112-37.047 25.112-60.98V22.3h0.001zM635.522 596.19c0-0.56-0.56-1.14-0.56-1.698l1.121-0.58-5.139-5.7-185.416-204.016 185.415-203.457 4.58-5.697-0.562-0.57c0-0.57 0.561-1.14 0.561-1.708 1.14-3.42 1.72-6.27 1.72-9.697 0-6.84-2.86-13.676-7.419-18.235-4.557-4.56-10.854-7.407-18.273-7.407-3.418 0-6.836 0.57-10.254 2.279-1.72 0.57-3.42 1.71-5.138 2.85h-0.562l-2.858 3.418-201.389 221.132-5.139 5.127 1.14 0.57c-0.58 0.571-0.58 1.71-1.14 2.28-1.138 2.85-1.72 5.7-1.72 9.118s0.581 6.259 1.72 9.676c0.56 0.58 0.56 1.14 1.14 2.28l-0.58 0.58 4.58 5.139 201.39 221.111 2.858 2.859h0.562c1.719 1.14 3.42 2.28 5.138 3.42 3.419 1.14 6.838 2.28 10.254 2.28 7.42 0 13.716-3.42 18.273-7.98 4.56-4.557 7.42-10.836 7.42-18.253-0.002-3.404-0.583-6.262-1.722-9.12z"  horiz-adv-x="1024" />

    
    <glyph glyph-name="angle-up-r" unicode="&#60699;" d="M472.064 144.448L72.832 543.68c-22.08 22.08-22.08 57.792 0 79.872 22.016 22.016 57.792 22.08 79.872 0L512 264.256l359.296 359.296c22.016 22.016 57.792 22.08 79.872 0s22.016-57.792 0-79.872L551.936 144.448c-22.08-22.016-57.792-22.016-79.872 0z"  horiz-adv-x="1024" />

    
    <glyph glyph-name="angle-up" unicode="&#60700;" d="M520.13 615.547a21.707 21.707 0 0 0-6.39-15.396L77.941 164.353c-8.52-8.522-22.325-8.522-30.847 0-8.522 8.52-8.522 22.326 0 30.848l435.797 435.796c8.521 8.522 22.326 8.522 30.848 0 4.26-4.26 6.39-9.855 6.39-15.451zM983.183 152.537c0-5.581-2.16-11.164-6.42-15.424-8.521-8.522-22.326-8.522-30.848 0L482.892 600.152c-8.522 8.522-8.522 22.325 0 30.847s22.326 8.522 30.848 0l463.024-463.038c4.26-4.26 6.419-9.843 6.419-15.424z"  horiz-adv-x="1024" />

    
    <glyph glyph-name="angle-square-right" unicode="&#60701;" d="M899.66-2.595c6.278 6.277 10.276 14.815 10.276 24.51V745.7c0 9.688-3.998 18.236-10.276 24.503-6.277 6.268-14.834 9.687-24.53 9.687H150.562c-9.118 0-18.235-3.42-24.534-9.687-6.257-6.267-9.695-14.815-9.695-24.503v-723.784c0-9.697 3.437-18.234 9.695-24.511 6.298-6.259 15.415-10.257 24.534-10.257H875.13c9.697 0 18.254 3.998 24.531 10.257zM64.411 745.7c0 23.365 9.697 45.017 25.112 60.972 15.973 15.396 37.665 25.082 61.038 25.082H875.13c23.97 0 45.644-9.686 61.057-25.082 15.396-15.955 25.092-37.607 25.092-60.972v-723.784c0-23.933-9.696-45.586-25.092-60.98-15.414-15.397-37.087-25.073-61.057-25.073H150.563c-23.374 0-45.065 9.676-61.038 25.073-15.415 15.394-25.112 37.047-25.112 60.98V745.7h-0.001z m324.067-573.89c0 0.56 0.56 1.14 0.56 1.698l-1.121 0.58 5.139 5.7 185.416 204.016-185.415 203.457-4.58 5.697 0.562 0.57c0 0.57-0.561 1.14-0.561 1.708-1.14 3.42-1.72 6.27-1.72 9.697 0 6.84 2.86 13.676 7.419 18.235 4.557 4.56 10.854 7.407 18.273 7.407 3.418 0 6.836-0.57 10.254-2.279 1.72-0.57 3.42-1.71 5.138-2.85h0.562l2.858-3.418 201.389-221.132 5.139-5.127-1.14-0.57c0.58-0.571 0.58-1.71 1.14-2.28 1.138-2.85 1.72-5.7 1.72-9.118s-0.581-6.259-1.72-9.676c-0.56-0.58-0.56-1.14-1.14-2.28l0.58-0.58-4.58-5.139-201.39-221.111-2.858-2.859h-0.562c-1.719-1.14-3.42-2.28-5.138-3.42-3.419-1.14-6.838-2.28-10.254-2.28-7.42 0-13.716 3.42-18.273 7.98-4.56 4.557-7.42 10.836-7.42 18.253 0.002 3.404 0.583 6.262 1.722 9.12z"  horiz-adv-x="1024" />

    
    <glyph glyph-name="angle-square-up" unicode="&#60702;" d="M125.405-3.66c6.277-6.278 14.815-10.276 24.51-10.276H873.7c9.688 0 18.236 3.998 24.503 10.276 6.268 6.277 9.687 14.834 9.687 24.53V745.438c0 9.118-3.42 18.235-9.687 24.534-6.267 6.257-14.815 9.695-24.503 9.695H149.916c-9.697 0-18.234-3.437-24.511-9.695-6.259-6.298-10.257-15.415-10.257-24.534V20.87c0-9.697 3.998-18.254 10.257-24.531zM873.7 831.589c23.365 0 45.017-9.697 60.972-25.112 15.396-15.973 25.082-37.665 25.082-61.038V20.87c0-23.97-9.686-45.644-25.082-61.057-15.955-15.396-37.607-25.092-60.972-25.092H149.916c-23.933 0-45.586 9.696-60.98 25.092-15.397 15.414-25.073 37.087-25.073 61.057V745.437c0 23.374 9.676 45.065 25.073 61.038 15.394 15.415 37.047 25.112 60.98 25.112H873.7v0.001zM299.81 507.522c0.56 0 1.14-0.56 1.698-0.56l0.58 1.121 5.7-5.139 204.016-185.416 203.457 185.415 5.697 4.58 0.57-0.562c0.57 0 1.14 0.561 1.708 0.561 3.42 1.14 6.27 1.72 9.697 1.72 6.84 0 13.676-2.86 18.235-7.419 4.56-4.557 7.407-10.854 7.407-18.273 0-3.418-0.57-6.836-2.279-10.254-0.57-1.72-1.71-3.42-2.85-5.138v-0.562l-3.418-2.858-221.132-201.389-5.127-5.139-0.57 1.14c-0.571-0.58-1.71-0.58-2.28-1.14-2.85-1.138-5.7-1.72-9.118-1.72s-6.259 0.581-9.676 1.72c-0.58 0.56-1.14 0.56-2.28 1.14l-0.58-0.58-5.139 4.58-221.111 201.39-2.859 2.858v0.562c-1.14 1.719-2.28 3.42-3.42 5.138-1.14 3.419-2.28 6.838-2.28 10.254 0 7.42 3.42 13.716 7.98 18.273 4.557 4.56 10.836 7.42 18.253 7.42 3.404-0.002 6.262-0.583 9.12-1.722z"  horiz-adv-x="1024" />

    
    <glyph glyph-name="angular" unicode="&#60703;" d="M511.964 768l375.934-138.21-78.34-460.778-297.762-159.898-297.624 160.102-78.11 460.564L511.964 768m-0.002 64L64 672l92.24-544L512-64l355.5 192L960 672 511.962 832zM688 192h80L512 752 256 192h80l53.168 112h245.654L688 192zM427.146 384l84.838 178.712L596.838 384H427.146z"  horiz-adv-x="1024" />

    
    <glyph glyph-name="angrycreative" unicode="&#60704;" d="M907.632485 406.006949l-3.957657-34.865131-42.653737-2.843151-2.473374-22.379313 42.65503 2.843151-3.957656-34.865131-42.530909-2.720323-2.843152-24.851394 42.530909 2.720323-3.709414-32.268929-79.992242-5.069576 15.702626 139.95701-58.479192-142.677333-39.440808-2.473374-29.425778 145.645899 37.462627 2.473374 16.814545-98.168243 39.192566 101.876364L907.632485 406.006949zM644.039111 241.199838l34.989253 2.225132 15.949575 148.48905-35.11208-2.349252-15.826748-148.36493z m-327.389091-20.523959l-23.985131 44.509091-4.328727-46.240324-34.865132-2.10101 3.338344 35.977051c-13.600323-22.253899-39.564929-42.406788-70.349576-44.260849C145.908364 206.087758 112.649051 234.39903 116.729535 280.515232c3.212929 36.226586 33.009778 77.644283 83.454707 80.858505 46.610101 2.967273 58.850263-28.683636 63.424647-35.607272l3.462465 38.080646 48.094383 3.091394c24.851394 1.607111 47.847434-4.574384 52.54594-29.302949l3.214222 32.888242 80.116364 5.193697-3.338344-34.495354-45.004283-2.967272-2.10101-22.131071 45.004283 2.844444-3.338343-34.495353-45.004283-2.843152-2.34796-24.603151 44.878869 2.843151-2.596202-25.717656 68.000323 144.902464 29.425778 1.978182 39.686465-136.742788 11.004121 105.831435-27.570424-1.72994 3.585292 34.494061 92.727596 6.05996-3.709414-34.618182-30.043798-1.978182-11.991919-113.622626-71.708444-4.574384-5.316526 19.287919-48.712404-3.091394-9.890909-20.152889-156.030707-9.519838z m-54.769778 86.79305l-32.64-2.102303c-8.283798 15.330263-17.804929 20.52396-32.515878 19.534869-23.491232-1.48299-41.17204-21.635879-42.779152-41.17204-1.729939-19.781818 9.025939-40.181657 35.483152-38.574546 15.825455 0.990384 26.334384 10.633051 35.731394 23.367111l33.382141 2.102303 3.338343 36.844606z m69.360485 9.519839c1.48299 15.948283-9.39701 16.814545-32.268929 15.330262l-3.338343-35.236202c17.555394 1.113212 33.998869 2.596202 35.607272 19.90594z m26.086142-87.535192l7.170586 74.181818c-6.181495-16.690424-18.174707-26.087434-34.494061-32.88695l27.323475-41.294868z m167.403313 55.63604l-9.766788 46.734222-19.534869-48.588282 29.301657 1.85406z m-210.304 92.233697l-5.316525 21.635879-48.959354-3.214222-10.01503-22.500849-39.439515-2.597495 70.472404 150.712889 29.548606 1.978182 37.955232-126.109737 12.240162 129.446787 33.382141 2.226425 46.734222-78.632081 8.035556 82.342788 35.237495 2.347959-4.945455-50.937535c9.148768 16.690424 28.311273 55.26497 78.632081 58.727434 50.072566 3.462465 64.784808-36.226586 66.020849-37.462626l4.079191 39.564929 48.589576 3.337051c15.702626 1.113212 34.371232-0.369778 44.880162-11.991919l-5.440647 14.713535 39.811879 2.720323 15.948283-53.412202 28.436687 56.502303 38.327596 2.720324-53.904808-96.93091-5.934546-54.77107-35.112081-2.34796 5.934546 54.769778-19.534869 53.16396c1.237333-27.570424-11.373899-49.578667-39.563636-61.323637l31.15701-47.971555-45.004283-2.967273-23.738182 45.496889-4.944161-47.352243-35.113374-2.349252 4.080485 38.945616c-8.283798-11.49802-24.357495-43.768242-73.687919-46.981172-32.393051-2.102303-56.376889 12.734061-68.494223 48.464162l-4.945454-49.825616-30.908768-1.976889-46.487273 78.26101-7.788606-81.847596-70.225454-4.574384z m341.977212 101.505293c12.611232 0.866263 21.635879 2.597495 26.705454 5.316525 5.563475 2.967273 8.653576 7.912727 9.397011 14.959192 0.740848 6.552566-0.742141 10.88-4.204606 12.858182-4.450263 2.596202-13.105131 3.462465-28.311273 2.472081l-3.586586-35.60598z m-134.887434-42.90198c6.923636-7.294707 15.702626-10.508929 26.334383-9.768081 5.811717 0.371071 11.251071 2.226424 16.444768 5.069576 6.799515 3.709414 13.105131 9.890909 18.668606 17.680808l-42.283959-2.843151 2.967272 29.548606 78.015354 5.316525 1.48299 14.836364-38.574546-2.596202c-5.069576 4.574384-9.64396 8.16097-13.724444 10.01503-4.944162 2.10101-10.013737 3.461172-15.083313 3.091394-9.889616-0.619313-18.916848-4.451556-27.199354-11.375192-9.519838-7.912727-14.837657-17.926465-15.949576-30.167919-1.360162-11.869091 1.731232-21.388929 8.901819-28.807758z m-248.879839-10.136565l29.425778 1.976888-10.263273 46.487273-19.162505-48.464161z"  horiz-adv-x="1024" />

    
    <glyph glyph-name="angular-s" unicode="&#60705;" d="M423.68 356.48h176.384l-88.235 209.28M511.83 895.616L29.27 725.846l73.6-629.76 408.96-223.702 409.087 223.488 73.558 629.888L511.829 895.573z m301.14-780.672H700.502L639.915 264.32H383.787L323.2 114.944H210.645l301.227 667.648 301.099-667.648z"  horiz-adv-x="1024" />

    
    <glyph glyph-name="apper" unicode="&#60706;" d="M84.2 417.8c44.4 0 58-5.6 67-29.2h1.6v45.8c0 22.6-9.6 30.8-35.8 30.8-22.6 0-28.8-5-30.2-25.6H9.6c0.6 27.8 3 38.2 11.6 48.8C35.8 506 59 512 113.4 512c66 0 94.2-10 107.8-37.8 4-8.6 8-31.2 8-47.4v-152.6H152.6l2.6 38.2h-2c-10.6-31.2-27.2-40.8-71-40.8-60.6 0-82.2 20.2-82.2 74.6 0 50.4 24.6 71.6 84.2 71.6z m34.2-96.2c26.2 0 33.8 6 33.8 26.8 0 18.2-8.6 23.2-39.2 23.2-26.2 0-35.8-6-35.8-24.2-0.2-20.8 7.4-25.8 41.2-25.8z m155.6 189.8h76.6l-3-41.2h1.6c18.2 34.2 31.8 41.8 75 41.8 28.8 0 49.4-6 63-18.2 19.6-17.2 25.6-40.8 25.6-96.2 0-60-6-86.2-24.2-105.8-13.6-14.6-32.8-20.2-66.4-20.2-40.8 0-58.4 11-67.6 42.4h-1.6v-140.6H274v338z m161.8-121.4c0 55-6.6 65-41.4 65-33.8 0-41.4-10-41.4-57.4 0-56 7-67 42.4-67 32.8 0 40.4 11.2 40.4 59.4z m115.8 121.4h76.6l-3-41.2h1.6c18.2 34.2 31.8 41.8 75 41.8 28.8 0 49.4-6 63-18.2 19.6-17.2 25.6-40.8 25.6-96.2 0-60-6-86.2-24.2-105.8-13.6-14.6-32.8-20.2-66.6-20.2-40.8 0-58.4 11-67.6 42.4h-1.6v-140.6h-79v338z m161.8-121.4c0 55-6.6 65-41.4 65-33.8 0-41.4-10-41.4-57.4 0-56 7-67 42.4-67 32.8 0 40.4 11.2 40.4 59.4z m107.6 7.6c0 50.8 6.6 75.6 24.6 91.6 17.6 16.2 44.4 22.6 90.2 22.6 85.6 0 111.4-25.6 111.4-111.4v-22.2h-150.6c-0.6-4-0.6-8-0.6-9.6 0-33.8 9-43.8 40.2-43.8 27.8 0 35.8 6 35.8 27.8h75v-4.6c0-19.6-5-37.8-13.6-49.4-14.6-19.6-39.2-27.2-88.6-27.2-55 0-83.2 6.6-101.2 24.6-17 17-22.6 42.6-22.6 101.6z m152.8 23.2c-0.6 3.6-0.6 6.6-0.6 7.6 0 24.6-6.6 29.2-39.2 29.2-28.8 0-34.2-6-36.2-30.2l-0.6-6.6h76.6z m111.2 90.6h76.6l-3.6-39.8h1.4c13.6 29.8 28.8 40.4 59.4 40.4 21.6 0 38.2-6.6 46.8-18.6 10.6-14.6 13.6-28.8 13.6-68 0-3 0-10 0.4-18.6h-70c0.6 3.6 0.6 6.6 0.6 8 0 30.8-4 38.8-20.6 38.8-12.6 0-21.6-6.6-26.2-18.6-2-6-2-8.6-2-24.6v-136h-76.6V511.4z"  horiz-adv-x="1280" />

    
    <glyph glyph-name="apple-pay" unicode="&#60708;" d="M233.90527 579c-15-17.8-39-31.8-63-29.8-3 24 8.8 49.6 22.6 65.2 15 18.2 41.2 31.2 62.6 32.2 2.4-24.8-7.4-49.4-22.2-67.6m21.8-34.4c-34.8 2-64.6-19.8-81-19.8-16.8 0-42 18.8-69.6 18.2-35.8-0.6-69-20.8-87.2-53-37.6-64.6-9.8-160 26.6-212.6 17.8-26 39-54.6 67-53.6 26.6 1 37 17.2 69 17.2 32.2 0 41.6-17.2 69.6-16.8 29 0.6 47.2 26 65 52 20.2 29.6 28.6 58.2 29 59.8-0.6 0.6-56 21.8-56.6 85.8-0.6 53.6 43.8 79 45.8 80.6-25 37.2-64 41.2-77.6 42.2m200.8 72.4v-389.8h60.6V360.4h83.8c76.6 0 130.2 52.6 130.2 128.6s-52.8 128-128.2 128h-146.4z m60.6-51h69.8c52.6 0 82.6-28 82.6-77.2s-30-77.6-82.8-77.6h-69.6V566z m324.4-341.8c38 0 73.2 19.2 89.2 49.8h1.2v-46.8h56v194c0 56.2-45 92.6-114.2 92.6-64.2 0-111.8-36.8-113.6-87.2h54.6c4.6 24 26.8 39.8 57.2 39.8 37 0 57.8-17.2 57.8-49v-21.6l-75.6-4.6c-70.2-4.2-108.2-33-108.2-83 0.2-50.4 39.4-84 95.6-84z m16.4 46.2c-32.2 0-52.8 15.6-52.8 39.2 0 24.6 19.8 38.8 57.6 41l67.2 4.2v-22c0-36.4-31-62.4-72-62.4z m205-149.2c59 0 86.8 22.6 111 90.8l106.2 298h-61.6l-71.2-230.2h-1.2l-71.2 230.2h-63.2l102.4-283.8-5.6-17.2c-9.2-29.2-24.2-40.6-51-40.6-4.8 0-14 0.6-17.8 1v-46.8c3.6-0.8 18.6-1.4 23.2-1.4z"  horiz-adv-x="1280" />

    
    <glyph glyph-name="apple-pay-square" unicode="&#60709;" d="M604.4 459.2c0-34.4-21-54.2-58-54.2h-48.6V513.4h48.8c36.8 0 57.8-19.6 57.8-54.2z m95-125.2c0-16.6 14.4-27.4 37-27.4 28.8 0 50.4 18.2 50.4 43.8v15.4l-47-3c-26.6-1.8-40.4-11.6-40.4-28.8zM1152 738v-704c0-53-43-96-96-96H96c-53 0-96 43-96 96V738c0 53 43 96 96 96h960c53 0 96-43 96-96zM255.6 501.6c16.8-1.4 33.6 8.4 44.2 20.8 10.4 12.8 17.2 30 15.4 47.4-14.8-0.6-33.2-9.8-43.8-22.6-9.6-11-17.8-28.8-15.8-45.6z m121.2-149c-0.4 0.4-39.2 15.2-39.6 60-0.4 37.4 30.6 55.4 32 56.4-17.6 26-44.8 28.8-54.2 29.4-24.4 1.4-45.2-13.8-56.8-13.8-11.8 0-29.4 13.2-48.6 12.8-25-0.4-48.4-14.6-61-37.2-26.2-45.2-6.8-112 18.6-148.8 12.4-18.2 27.4-38.2 47-37.4 18.6 0.8 26 12 48.4 12 22.6 0 29-12 48.6-11.8 20.4 0.4 33 18.2 45.6 36.4 13.8 20.8 19.6 40.8 20 42z m270.8 106.8c0 53.2-37 89.6-89.8 89.6H455.4v-272.8h42.4v93.2h58.6c53.6 0 91.2 36.8 91.2 90z m180-47.4c0 39.4-31.6 64.8-80 64.8-45 0-78.2-25.8-79.4-61h38.2c3.2 16.8 18.8 27.8 40 27.8 26 0 40.4-12 40.4-34.4v-15L734 391c-49.2-3-75.8-23.2-75.8-58.2 0-35.4 27.4-58.8 66.8-58.8 26.6 0 51.2 13.4 62.4 34.8h0.8V276h39.2V412z m204.4 62.2h-43L939.2 313h-0.8l-49.8 161.2H844l71.8-198.6-3.8-12c-6.4-20.4-17-28.4-35.8-28.4-3.4 0-9.8 0.4-12.4 0.6V203c2.4-0.8 13-1 16.2-1 41.4 0 60.8 15.8 77.8 63.6l74.2 208.6z"  horiz-adv-x="1152" />

    
    <glyph glyph-name="app-store" unicode="&#60711;" d="M511.8 654.2l18.2 31.4c11.2 19.6 36.2 26.2 55.8 15 19.6-11.2 26.2-36.2 15-55.8l-175-303h126.6c41 0 64-48.2 46.2-81.6H227.6c-22.6 0-40.8 18.2-40.8 40.8 0 22.6 18.2 40.8 40.8 40.8h104l133.2 230.8-41.6 72.2c-11.2 19.6-4.6 44.4 15 55.8 19.6 11.2 44.4 4.6 55.8-15l17.8-31.4z m-157.4-436l-39.2-68c-11.2-19.6-36.2-26.2-55.8-15-19.6 11.2-26.2 36.2-15 55.8l29.2 50.4c32.8 10.2 59.6 2.4 80.8-23.2z m337.8 123.4h106.2c22.6 0 40.8-18.2 40.8-40.8 0-22.6-18.2-40.8-40.8-40.8h-59l39.8-69c11.2-19.6 4.6-44.4-15-55.8-19.6-11.2-44.4-4.6-55.8 15-67 116.2-117.4 203.2-150.8 261.2-34.2 59-9.8 118.2 14.4 138.2 26.8-46 66.8-115.4 120.2-208zM512 880C238 880 16 658 16 384s222-496 496-496 496 222 496 496S786 880 512 880z m432-496c0-237.4-192.2-432-432-432-237.4 0-432 192.2-432 432 0 237.4 192.2 432 432 432 237.4 0 432-192.2 432-432z"  horiz-adv-x="1024" />

    
    <glyph glyph-name="apple-s" unicode="&#60712;" d="M905.758 111.435c-14.758-34.093-32.226-65.475-52.465-94.328-27.588-39.334-50.176-66.56-67.584-81.68-26.985-24.816-55.898-37.526-86.86-38.249-22.226 0-49.03 6.325-80.233 19.155-31.304 12.77-60.072 19.095-86.377 19.095-27.588 0-57.175-6.325-88.823-19.095-31.696-12.83-57.23-19.516-76.752-20.179-29.69-1.265-59.283 11.806-88.823 39.274-18.853 16.444-42.435 44.634-70.686 84.57-30.31 42.647-55.23 92.1-74.752 148.48-20.907 60.898-31.388 119.868-31.388 176.96 0 65.397 14.13 121.801 42.435 169.068 22.245 37.966 51.839 67.915 88.878 89.901s77.059 33.19 120.157 33.906c23.582 0 54.507-7.294 92.937-21.63 38.322-14.384 62.928-21.679 73.716-21.679 8.065 0 35.4 8.53 81.74 25.534 43.82 15.77 80.805 22.3 111.103 19.727 82.1-6.626 143.782-38.99 184.802-97.298-73.427-44.49-109.749-106.803-109.026-186.741 0.663-62.266 23.251-114.08 67.644-155.22 20.119-19.095 42.587-33.853 67.584-44.334-5.42-15.721-11.143-30.78-17.227-45.237zM717.463 852.39c0-48.803-17.83-94.371-53.369-136.548-42.887-50.14-94.762-79.113-151.016-74.54a151.925 151.925 0 0 0-1.132 18.491c0 46.851 20.395 96.991 56.615 137.987 18.083 20.757 41.08 38.015 68.97 51.785 27.828 13.565 54.15 21.064 78.908 22.347 0.722-6.524 1.024-13.047 1.024-19.516z"  horiz-adv-x="1024" />

    
    <glyph glyph-name="app-store-ios" unicode="&#60713;" d="M887.466667 861.866667H136.533333c-56.53504 0-102.4-45.868373-102.4-102.4v-750.933334c0-56.53504 45.868373-102.4 102.4-102.4h750.933334c56.53504 0 102.4 45.868373 102.4 102.4V759.466667c0 56.53504-45.86496 102.4-102.4 102.4zM305.066667 109.86496c-11.73504-20.268373-37.86752-27.204267-58.13248-15.465813-20.534613 11.73504-27.467093 37.86752-15.732054 58.13248l30.665387 52.800853c34.133333 10.400427 62.399147 2.133333 84.268373-24.53504l-41.069226-70.93248z m296.267093 114.93376H213.333333c-23.466667 0-42.666667 19.2-42.666666 42.666667s19.2 42.666667 42.666666 42.666666h108.8l139.465387 241.599147-43.731627 75.4688c-11.73504 20.538027-4.532907 46.404267 15.732054 58.13248 20.26496 11.731627 46.400853 4.799147 58.13248-15.465813l18.93376-32.795307 18.93376 32.795307c11.73504 20.538027 38.13376 27.204267 58.39872 15.465813 20.534613-11.73504 27.200853-37.86752 15.4624-58.13248l-182.930774-317.067947h132.532907c42.93632 0 67.20512-50.397867 48.27136-85.333333z m209.332907 0h-61.866667l41.601707-72.267093c11.73504-20.538027 4.799147-46.404267-15.4624-58.13248s-46.404267-4.799147-58.135894 15.465813c-70.13376 121.33376-122.668373 212.800853-157.866666 273.33632-35.734187 61.866667-10.134187 123.733333 15.199573 144.534187 27.999573-48.267947 69.60128-120.80128 125.600427-217.603414h110.933333c23.466667 0 42.666667-19.2 42.666667-42.666666-0.003413-23.732907-19.203413-42.666667-42.67008-42.666667z"  horiz-adv-x="1024" />

    
    <glyph glyph-name="archive-s" unicode="&#60714;" d="M621.728 420.576q0 14.848-10.848 25.728t-25.728 10.848H438.88q-14.848 0-25.728-10.848t-10.848-25.728 10.848-25.728T438.88 384h146.272q14.848 0 25.728 10.848t10.848 25.728z m329.12 109.696v-548.576q0-14.848-10.848-25.728t-25.728-10.848H109.696q-14.848 0-25.728 10.848T73.12-18.304V530.272q0 14.848 10.848 25.728t25.728 10.848h804.576q14.848 0 25.728-10.848t10.848-25.728z m36.576 256V640q0-14.848-10.848-25.728t-25.728-10.848H73.12q-14.848 0-25.728 10.848T36.544 640V786.272q0 14.848 10.848 25.728T73.12 822.848h877.728q14.848 0 25.728-10.848t10.848-25.728z"  horiz-adv-x="1024" />

    
    <glyph glyph-name="arrow-alt-left" unicode="&#60719;" d="M901.338 830.685L630.752 375.45l270.586-441.085L125.57 382.463 901.338 830.685z m0 0"  horiz-adv-x="1024" />

    
    <glyph glyph-name="arrow-alt-down" unicode="&#60720;" d="M65.315 773.338L520.55 502.752l441.085 270.586L513.537-2.43 65.315 773.338z m0 0"  horiz-adv-x="1024" />

    
    <glyph glyph-name="arrow-alt-right" unicode="&#60722;" d="M122.662-62.685L393.248 392.55 122.662 833.635 898.43 385.537 122.662-62.685z m0 0"  horiz-adv-x="1024" />

    
    <glyph glyph-name="arrow-alt-up" unicode="&#60723;" d="M958.685-5.338L503.45 265.248 62.365-5.338 510.463 770.43l448.222-775.768z m0 0"  horiz-adv-x="1024" />

    
    <glyph glyph-name="arrow-circle-down" unicode="&#60724;" d="M511.575 829.953c-247.045 0-447.302-200.256-447.302-447.24 0-247.113 200.257-447.271 447.302-447.271 246.984 0 447.24 200.158 447.24 447.27 0 246.985-200.256 447.24-447.24 447.24z m0-74.736c205.69 0 372.504-166.816 372.504-372.504 0-205.753-166.815-372.568-372.504-372.568-205.817 0-372.566 166.815-372.566 372.568 0 205.688 166.75 372.504 372.566 372.504zM513.998 173.295l133.505 161.516s20.222 19.109-1.638 19.109h-75.259V588.895s3.074 11.352-14.332 11.352H450.322c-12.501 0-12.173-9.488-12.173-9.488v-237.003h-69.436c-26.831 0-3.6-19.01-3.6-19.01s110.535-146.954 126.373-162.792c11.584-11.484 22.512 1.341 22.512 1.341z"  horiz-adv-x="1024" />

    
    <glyph glyph-name="arrow-circle-down-r" unicode="&#60725;" d="M713.12 365.728q0-6.848-5.728-13.728L525.12 169.728q-6.272-5.152-13.152-5.152t-13.152 5.152L315.968 352.576q-8.576 9.152-4 20Q316.544 384 329.12 384h109.728V585.152q0 8 5.152 13.152t13.152 5.152H566.88q8 0 13.152-5.152t5.152-13.152V384h109.728q8 0 13.152-5.152t5.152-13.152z m-201.152 329.12q-84.576 0-156-41.728T242.816 539.968t-41.728-156 41.728-156 113.152-113.152 156-41.728 156 41.728T781.12 227.968t41.728 156-41.728 156T667.968 653.12t-156 41.728zM950.848 384q0-119.424-58.848-220.288T732.288 4 512-54.848 291.712 4 132 163.712 73.152 384 132 604.288 291.712 764 512 822.848 732.288 764 892 604.288 950.848 384z"  horiz-adv-x="1024" />

    
    <glyph glyph-name="arrow-circle-down-s" unicode="&#60727;" d="M540.57 793.6c-225.833 0-409.6-183.747-409.6-409.6s183.767-409.6 409.6-409.6c225.853 0 409.6 183.747 409.6 409.6s-183.747 409.6-409.6 409.6z m158.842-480.563l-128.593-109.2a46.694 46.694 0 0 0-60.519 0l-128.594 109.2a46.756 46.756 0 0 0 60.498 71.25l51.63-43.848v188.13a46.694 46.694 0 1 0 93.45 0v-188.13l51.63 43.848a46.817 46.817 0 0 0 65.885-5.366c16.69-19.681 14.274-49.152-5.387-65.884z"  horiz-adv-x="1024" />

    
    </font>
</defs>
</svg>
